<?xml version="1.0" encoding="utf-8"?>
<!-- Generator: Adobe Illustrator 24.1.0, SVG Export Plug-In . SVG Version: 6.00 Build 0)  -->
<svg version="1.1" id="Layer_1" xmlns="http://www.w3.org/2000/svg" xmlns:xlink="http://www.w3.org/1999/xlink" x="0px" y="0px"
	 viewBox="0 0 1703.74 2082.85" style="enable-background:new 0 0 1703.74 2082.85;" xml:space="preserve">
<style type="text/css">
	.st0{clip-path:url(#SVGID_2_);fill:#FFFFFF;}
</style>
<g>
	<defs>
		<rect id="SVGID_1_" width="1703.74" height="2083.11"/>
	</defs>
	<clipPath id="SVGID_2_">
		<use xlink:href="#SVGID_1_"  style="overflow:visible;"/>
	</clipPath>
	<path class="st0" d="M678.1,485.29c10.92,2.08,24.88-4.38,27.12-16.59c0.82-2.19-3.81-5-8.64-5.87
		c-7.43,0.35-4.44,13.25-16.4,11.41c-10.61-3.68,0.69-14.73-17.06-15.66C658.85,471.13,666.21,483.02,678.1,485.29"/>
	<path class="st0" d="M800.5,1978.99c-82.26-354.21-72.2-531.77-19.4-875.74C562.92,1503.63,670.79,1843.78,800.5,1978.99"/>
	<path class="st0" d="M844.85,1129.56c-107.87,374.06-28.17,656.19,54.1,874.26C930.23,1793.92,897.59,1412.46,844.85,1129.56"/>
	<path class="st0" d="M487.01,1724.76c-7.08-181.4,9.72-476.96,154.37-720.8C416.23,1207.52,390.92,1523.22,487.01,1724.76"/>
	<path class="st0" d="M663.43,1901.8c-105.17-277.88-58.89-510.25,4.9-747.74C527.65,1338.65,489.75,1703.1,663.43,1901.8"/>
	<path class="st0" d="M1036.17,260.26c25.21-31.62,63.59-58.04,120.65-74.52c-17.24-84.9-141.99-112.34-177.96,58
		c21.85-37.58,77.95-81.73,107.68-81.58C1076.37,171.33,1035.87,208.2,1036.17,260.26"/>
	<path class="st0" d="M1217.45,291.07c35.17,12.34,30.26,36.17,31.9,44.2c0.46,2.29,23.04,9.83,26.98,11.44
		C1284,310.22,1249.35,278.88,1217.45,291.07"/>
	<path class="st0" d="M1326.22,370.86c15.48-20.05,12.06-63.61,4.33-87.08c-16.85-51.16-77.36-79.57-129.03-67.72
		c-49.25,11.3-76.47,56.37-80.96,100.97c60.97-121.5,194.61-74.81,181.55,32.23C1300.19,364.84,1308.75,363.44,1326.22,370.86"/>
	<path class="st0" d="M500.05,332.5c8.62-8.58,15.14-14.14,21.35-21.1c-14.49-23.15-81.24-51.89-102.96-10.61
		C464.19,284.44,483.81,313.03,500.05,332.5"/>
	<path class="st0" d="M599.64,570.82c8.03,19.14,27.4,26.05,46.89,27.03c49.81,2.53,94.6-40,72.72-91.09
		c-12.89-17.43-54.53,27.33-105.49-22.81C593.27,504.11,588.07,543.18,599.64,570.82"/>
	<path class="st0" d="M723.09,226.58c-8.17-82.54,11.24-127.11,23.41-157.84C687.14,98.28,663.32,185.58,723.09,226.58"/>
	<path class="st0" d="M662.62,224.13c-3.77-34.09-10.89-84.96,10.63-129.94C627.09,115.93,617.38,195.87,662.62,224.13"/>
	<path class="st0" d="M766.75,880.23c2.92,12.35,11.09,18.89,20.25,22.42c10.12-7.8,19.12-20.16,35.22-24.24v36.21
		c15.87,7.58,26.2-1,35.39-9.27c7.52,5.72,13.54,10.31,18.99,14.47c23.39-6.41,45.46-23.56,49.85-36.73
		C896.56,814.47,802.46,824,766.75,880.23"/>
	<path class="st0" d="M852.55,45.09c-92.69,9.88-110.67,112.03-65.43,166.89C793.37,136.7,813.79,84.4,852.55,45.09"/>
	<path class="st0" d="M957.36,44.72c-42.15-13.3-82.51,21.29-95.33,43.16c-31.71,54.1-15.51,129.81-1.67,147.7
		c2.53-62.27,15.98-107.07,34.65-137.89C912.72,68.49,935.1,51.82,957.36,44.72"/>
	<path class="st0" d="M588.6,139.21c-32.29,36.21-13.58,73.63,24.99,87.37c-18.88-35.37-20.21-62.27-13.78-95.05
		C596.05,134.14,592.33,136.66,588.6,139.21"/>
	<path class="st0" d="M975.59,132.61c41.93-39.48,80.78-41.97,104.58-34.05c-41.19-49.25-118.44-49.07-146.68-5.07
		c-12.84,19.97-34.26,89.21-8.16,136.64C945.83,169.61,963.56,143.94,975.59,132.61"/>
	<path class="st0" d="M763.32,665.75c-19.69-4.11-91.24-5.94-109.3,36.19c26.05-8.08,74.46-3.83,85.22,6.41
		c-18.11,3.07-90.03,14.77-88.69,59.62c27.63-9.2,74.29-23.11,92.76-16.65c-30.26,14.9-51.26,33.13-62.72,50.55
		c20.23,14.9,110.67,20.21,135.73-38.75C834.29,720.84,808.3,675.14,763.32,665.75"/>
	<path class="st0" d="M241.46,1367.04c22.81-171.98,112.51-364.41,236.39-508.71C295.21,937.14,188.7,1154.75,241.46,1367.04"/>
	<path class="st0" d="M184.33,846.4C278.41,744,347.26,693.63,444.66,660.04C355.66,637.75,194.43,695.31,184.33,846.4"/>
	<path class="st0" d="M263.97,626.73c32.9-25.92,101.75-59.17,180.69-75.85C365.73,495.46,286.81,554.24,263.97,626.73"/>
	<path class="st0" d="M172.82,1116.18c68.65-197.52,181.92-283.21,255.04-340.26C275.82,798.08,150.77,922.02,172.82,1116.18"/>
	<path class="st0" d="M511.83,1004.31c-189.76,122.6-245.18,403.04-151.13,602.72C365.73,1397.37,382.53,1214.22,511.83,1004.31"/>
	<path class="st0" d="M380.26,332.5c-5.29-33.18,19.93-77.6,63.37-82.71c42.95-5.05,68.63,14.68,98.86,42.99
		c12.32-8.14,26.31-16.63,43.34-23.84C446.9,139.82,320.22,273.98,380.26,332.5"/>
	<path class="st0" d="M1063.84,685.83c-6.69-12.5-8.01-28.8-6.47-42.62c1.84-16.35,9.85-28.24,27.22-34.33
		c106.25-34.93,245.94,65.01,288.71,142.9C1326.75,715.5,1139.05,625.2,1063.84,685.83 M1052.68,485.67
		c-27.24,2.16-31.64,36.52-88.02,22.5c-5.5,8.82-5.02,35.78-19.92,35.78c-12.35,0.06-15.51-9.68-16.24-19.01
		c-0.58-63.43,19.53-81.87,37.01-89.01c34.89-12.19,59.17-4.94,88.1,6.93C1075.9,452.03,1082.94,483.28,1052.68,485.67
		 M1297.99,471.94c-37.96-12.19-110.35-4.05-141.71,13.73c-14.62,8.3-29.45,18.43-35.06,35.45
		c82.25-10.59,173.34,32.61,209.32,83.83c-134.36-47.82-214-29.13-236.91-24.62c-9.51-5.61,5.57-27.79,5.43-56.55
		c-0.24-43.81-12.02-68.41-12.02-68.41C1150.81,417.6,1251.52,428.75,1297.99,471.94 M1647.69,1152.47
		c0.28-185.32-130.1-446.57-264.82-514.71c87.11,10.66,180.49,93.95,236,186.71c-40.33-138.33-159.62-271.22-233.64-320.36
		c41.43,8.81,82.82,29.32,116.39,55.33c-56.11-97.02-215.77-196.58-335.49-181.16c-36.9,4.74-64.97,31.71-81.15,62.94
		c0.06,0.06,0.09,0.13,0.17,0.2l-0.63,0.61c0.13-0.28,0.32-0.54,0.46-0.82c-44.01-47.93-17.43-131.74-110.58-149.67
		c-64-12.32-77.23,37.58-127.67,39c-56.48,1.58-114.48-76.8-171.4,10.16c29.2,7.3,44.66,14.94,59.97,38.94
		c-27.03-5.03-62.68-10.35-87.8-0.78c-19.38,7.38-25.03,24.49-30.08,42.25c31.25,7.64,46.74,1.04,71.51,1.86
		c18.65,0.63,37.58,3.12,54.4,11.72c39.03,19.99,42.86,73.59,34.89,111.99c-4.03,19.4-14.83,35.89-18.28,55.72
		c21.9,6,39.85,1.21,62.09,0.2c22.74-1.04,45.76-1.17,68.41,1.43c8.86,1,62.94,7.77,64.63,18.26c5.02,31.06-16.78,36.1-39.14,49.83
		c-32.46,19.93-81.52,52.89-54.81,98.26c12.63,21.46,37.43,31.23,59.77,39.18c18.76,6.67,63.54,21.03,89.6-9.83
		c-11.52-19.15-38.92-45.52-72.83-55.44c27.24-14.47,75.11,3.64,96.01,22.13c19.79-36.78-28.91-67.42-53.25-68.98
		c17.02-11.7,57.33-10.22,76.38,7.19c152.1-32.01,280.79,81.71,353.25,263.55C1319.63,851.72,1207.4,763.47,1099.29,776
		c150.8,70.21,220.34,195.03,230.89,285.53c-28.33-41.06-106.99-173.86-225.47-191.82c191.21,233.53,272.3,614.4,252.5,887.45
		c-0.91,12.6-4.81,25.69-10.76,38.61c90.76-85.5,87.82-441.51,26.85-641.69c121.48,166.13,93.95,460.22,90.35,484.89
		c-0.65,4.29-1.95,8.56-3.21,12.82c63.24-85.09,89.86-284.77,4.5-600.64c120.59,185.67,113.61,373.26,89.34,462.25
		c29.11-46.74,38.88-91.44,47.71-136.66c20.18-234.14-62.74-397.93-173.45-571.41C1534.6,889.51,1619.3,1020.88,1647.69,1152.47"/>
	<path class="st0" d="M1004.43,462.76c-8.86,1.6-2.03,12.78-12.11,15.16c-12.26,0.04-2.68-14.94-19.82-8.58
		c-3.55,7.82,6.69,17.13,13.04,18.41c9.7,1.97,24.62-3.68,27.55-12.43C1015.17,469.37,1017.94,460.57,1004.43,462.76"/>
	<path class="st0" d="M1030.67,915.6c79.38,108.24,150.48,256.06,143.93,436.55c-42.77-103.95-85.53-238.14-182.68-350.18
		c27.35,81.8,87.26,253.59,74.02,426.13c-31.29-106.05-86.31-233.12-128.51-298.01c-5.85,188.57,5.05,495.07,36.08,732.13
		c9.83,75.11,9.98,186.82,7.86,189.46c90.05-65.25,105.02-320.88,105.02-548.06c38.79,72.18,70.24,341.78,13.58,486.99
		c-0.3,0.95-1.67,3.12-3.53,5.68c96.35-79.7,97.63-498.08,98.5-554.45c60.51,211.35,41.11,374.95,25.95,466.5
		c-0.46,1.63-1.41,3.81-2.64,6.22C1337.08,1724.76,1399.28,1195.55,1030.67,915.6"/>
	<path class="st0" d="M340.87,365.36c-75.52,95.77-320.48,510.83-179.84,963.73c140.66,452.9,485.71,652.43,777.39,753.76
		C218.4,1939.35-258.54,1055.63,340.87,365.36"/>
</g>
</svg>
