<?xml version="1.0" encoding="UTF-8"?>
<svg width="576px" height="111px" viewBox="0 0 576 111" version="1.1" xmlns="http://www.w3.org/2000/svg" xmlns:xlink="http://www.w3.org/1999/xlink">
    <!-- Generator: Sketch 61.2 (89653) - https://sketch.com -->
    <title>LOGO EDICION NEGATIVO</title>
    <desc>Created with Sketch.</desc>
    <defs>
        <polygon id="path-1" points="0.742815073 0.609821469 125.70198 0.609821469 125.70198 100.4876 0.742815073 100.4876"></polygon>
    </defs>
    <g id="LOGO-EDICION-NEGATIVO" stroke="none" stroke-width="1" fill="none" fill-rule="evenodd">
        <g id="Group">
            <g id="Group-5">
                <path d="M0,109.391304 L0,108.878827 C4.90544153,106.955549 6.32563509,104.904151 6.32563509,93.8754672 L6.32563509,36.4288807 C6.32563509,25.4001968 4.90544153,23.348799 0,21.4255205 L0,20.9130435 L41.1781148,20.9130435 L41.1781148,38.9927555 L40.6622262,38.9927555 L36.1437011,31.0434029 C33.1743418,25.6564353 30.5933987,24.3752428 26.4632899,24.3752428 L18.0726004,24.3752428 L18.0726004,62.2031965 L26.9791786,62.2031965 C31.6251761,62.2031965 33.1743418,60.279918 37.1769782,53.9961156 L37.6928669,53.9961156 L37.6928669,73.7443574 L37.1769782,73.7443574 C33.5612584,67.4605551 31.6251761,65.6653958 26.9791786,65.6653958 L18.0726004,65.6653958 L18.0726004,105.929105 L27.3660951,105.929105 C32.7874253,105.929105 34.8524797,105.03227 38.2087556,99.3890642 L44.2764463,89.2601946 L45.0502793,89.2601946 L43.3721414,109.391304 L0,109.391304" id="Fill-47" fill="#FFFFFF"></path>
                <path d="M48.2681564,109.391304 L48.2681564,108.878827 C53.0420387,106.955549 54.4226846,104.904151 54.4226846,93.8754672 L54.4226846,36.4288807 C54.4226846,25.4001968 53.0420387,23.348799 48.2681564,21.4255205 L48.2681564,20.9130435 L72.0105951,20.9130435 L72.0105951,21.4255205 C67.2367128,23.348799 65.8560669,25.4001968 65.8560669,36.4288807 L65.8560669,105.929105 L72.8891879,105.929105 C78.1665827,105.929105 80.1762543,105.03227 83.442518,99.3890642 L89.3460196,89.2601946 L90.1005587,89.2601946 L88.4674268,109.391304 L48.2681564,109.391304" id="Fill-48" fill="#FFFFFF"></path>
                <g id="leon-negativo" transform="translate(97.548387, 7.988636)">
                    <mask id="mask-2" fill="white">
                        <use xlink:href="#path-1"></use>
                    </mask>
                    <g id="Clip-50"></g>
                    <g id="LEON-LEON" mask="url(#mask-2)" fill="#FFFFFF">
                        <g transform="translate(4.645161, 10.511364)">
                            <path d="M46.5893645,33.895794 C47.4246204,34.054156 48.4913931,33.5619853 48.6632488,32.6328405 C48.7258138,32.4659361 48.3720708,32.2523773 48.0027526,32.1858784 C47.4345199,32.2126883 47.6632649,33.19427 46.7485489,33.0543069 C45.9373159,32.7742492 46.8010823,31.9326306 45.4444516,31.8619263 C45.1177673,32.8180123 45.6801922,33.7232386 46.5893645,33.895794" id="Fill-1"></path>
                            <path d="M55.9486122,147.60903 C49.6585866,120.643329 50.4285056,107.126572 54.4656635,80.9400647 C37.7832495,111.420483 46.030609,137.315499 55.9486122,147.60903" id="Fill-3"></path>
                            <path d="M59.3390672,82.9435874 C51.0915757,111.41997 57.1855907,132.897934 63.4754843,149.499531 C65.8676053,133.520343 63.3718693,104.479771 59.3390672,82.9435874" id="Fill-5"></path>
                            <path d="M31.9789342,128.25501 C31.4377602,114.445447 32.7217944,91.9447665 43.7818067,73.3815834 C26.5667984,88.8784572 24.6320354,112.912292 31.9789342,128.25501" id="Fill-7"></path>
                            <path d="M45.4683292,141.732433 C37.4268798,120.578289 40.9652337,102.88774 45.8433232,84.8081852 C35.0858404,98.8611391 32.1880517,126.606165 45.4683292,141.732433" id="Fill-9"></path>
                            <path d="M73.9678051,16.7649659 C75.8954404,14.3577317 78.8301873,12.3465998 83.1925776,11.0920571 C81.8743569,4.62852107 72.3357035,2.53958801 69.5854837,15.5076634 C71.2561274,12.6463705 75.5460532,9.28594156 77.8188519,9.29724374 C77.0418053,9.99456232 73.9451021,12.8019727 73.9678051,16.7649659" id="Fill-11"></path>
                            <path d="M87.8283663,19.110314 C90.517341,20.0494468 90.142347,21.8641047 90.267345,22.4750798 C90.3028513,22.6489495 92.0286683,23.2231268 92.3298779,23.3462681 C92.9164577,20.5685588 90.267345,18.1824834 87.8283663,19.110314" id="Fill-13"></path>
                            <path d="M96.1447981,25.1844898 C97.3279892,23.6584318 97.0666417,20.341766 96.4757061,18.5554949 C95.1874481,14.6603149 90.5608065,12.4979176 86.6103684,13.4002526 C82.8445895,14.2601387 80.7635775,17.691272 80.4198661,21.0871846 C85.0820139,11.8373969 95.2996427,15.39154 94.3009787,23.5410731 C94.1547297,24.7262255 94.8095502,24.620169 96.1447981,25.1844898" id="Fill-15"></path>
                            <path d="M32.9758558,22.2642941 C33.6349001,21.61087 34.1334402,21.1880894 34.6079574,20.6576752 C33.5000026,18.8953228 28.396072,16.7074299 26.7355918,19.8499632 C30.2342156,18.6054086 31.7343235,20.7821307 32.9758558,22.2642941" id="Fill-17"></path>
                            <path d="M40.5907413,40.4074827 C41.2043798,41.8642818 42.6860086,42.3903592 44.1760849,42.4654004 C47.9844979,42.6578004 51.4092052,39.4202499 49.7359216,35.5308523 C48.750061,34.2042911 45.5667701,37.6113745 41.6703174,33.7941269 C40.1035527,35.3285958 39.7057239,38.3030419 40.5907413,40.4074827" id="Fill-19"></path>
                            <path d="M50.0292643,14.201157 C49.4042744,7.91727314 50.888675,4.52425183 51.8190983,2.18496221 C47.2804965,4.43383434 45.459512,11.0797824 50.0292643,14.201157" id="Fill-21"></path>
                            <path d="M45.405685,14.014487 C45.1172789,11.4191897 44.5732011,7.54674544 46.218238,4.1225774 C42.6896516,5.77742768 41.9466593,11.8632605 45.405685,14.014487" id="Fill-23"></path>
                            <path d="M53.3680306,63.9624075 C53.5909679,64.9029859 54.2160899,65.4008078 54.9163162,65.6695632 C55.690459,65.0755414 56.3780139,64.134963 57.6096467,63.8237586 L57.6096467,66.5803091 C58.8228004,67.1573777 59.6125184,66.5039537 60.3156486,65.8745796 C60.8910089,66.3102395 61.3511388,66.6595558 61.7674468,66.9764113 C63.5558288,66.488446 65.2433677,65.1830436 65.5786316,64.1803031 C63.2930295,58.9556706 56.0981874,59.6812446 53.3680306,63.9624075" id="Fill-25"></path>
                            <path d="M59.9277589,0.384458306 C52.8408876,1.13697361 51.4657777,8.91300885 54.9246714,13.0894293 C55.4034124,7.35856404 56.9645013,3.37717197 59.9277589,0.384458306" id="Fill-27"></path>
                            <path d="M67.942044,0.356544536 C64.7188909,-0.65618388 61.6336712,1.97735683 60.6534864,3.64206366 C58.2286309,7.7605276 59.4672594,13.5239852 60.5255845,14.8860301 C60.7188232,10.1451574 61.7471858,6.73518279 63.1748291,4.38879645 C64.5285561,2.16555137 66.2402498,0.896815301 67.942044,0.356544536" id="Fill-29"></path>
                            <path d="M39.7461271,7.54940014 C37.2771858,10.3059507 38.7077331,13.1543643 41.6566033,14.2009993 C40.2135167,11.5081878 40.1112216,9.46025806 40.602634,6.96523484 C40.3156797,7.16328593 40.0316294,7.35568593 39.7461271,7.54940014" id="Fill-32"></path>
                            <path d="M69.3361081,7.04688656 C72.542234,4.04142508 75.5123552,3.85191634 77.3321517,4.45434913 C74.1829151,0.70504612 68.2764631,0.719108142 66.1171789,4.06823492 C65.1356741,5.58877317 63.4978968,10.8599286 65.4936409,14.4707142 C67.0604055,9.8641535 68.4155844,7.90966388 69.3361081,7.04688656" id="Fill-34"></path>
                            <path d="M53.1057856,47.6344682 C51.600002,47.3219496 46.129657,47.1819865 44.7488714,50.3895731 C46.7405237,49.7743925 50.4422857,50.0983447 51.2647381,50.8775384 C49.8798607,51.1109417 44.3810051,52.0019745 44.4833002,55.4161546 C46.5955946,54.7160761 50.1639111,53.6566934 51.5758472,54.1488641 C49.2618664,55.2832882 47.6566916,56.6706972 46.7802537,57.9973898 C48.3272194,59.1316824 55.2422349,59.5361955 57.1585188,55.0469936 C58.5320448,51.8279734 56.5448803,48.3487401 53.1057856,47.6344682" id="Fill-36"></path>
                            <path d="M13.2040644,101.022419 C14.9483605,87.9298884 21.8066188,73.2801529 31.2784834,62.2950854 C17.3135548,68.2947061 9.16981034,84.8606878 13.2040644,101.022419" id="Fill-38"></path>
                            <path d="M8.83557601,61.3870599 C16.0289662,53.5913115 21.2932691,49.7569793 28.741011,47.199794 C21.9354182,45.5026263 9.60826686,49.884326 8.83557601,61.3870599" id="Fill-40"></path>
                            <path d="M14.9253936,44.6638333 C17.4411927,42.6908133 22.7054956,40.1591237 28.7411694,38.8890734 C22.7054956,34.670204 16.6711417,39.1450811 14.9253936,44.6638333" id="Fill-42"></path>
                            <path d="M7.95570631,81.9246954 C13.204434,66.8875314 21.8651976,60.3645932 27.4563168,56.0211369 C15.8309757,57.7084481 6.26961938,67.1435391 7.95570631,81.9246954" id="Fill-44"></path>
                            <path d="M33.8767257,73.4079464 C19.3677193,82.7411863 15.130327,104.09049 22.3209453,119.291798 C22.7059708,103.331009 23.990005,89.3884486 33.8767257,73.4079464" id="Fill-46"></path>
                            <path d="M23.8169218,22.2642941 C23.4120972,19.7382555 25.3410525,16.3566678 28.6621448,15.9676624 C31.9464109,15.5829938 33.9095525,17.0850017 36.2207614,19.2404337 C37.1624041,18.6210476 38.2320807,17.9745889 39.5347261,17.4259072 C28.9122728,7.59629107 19.2257865,17.8091301 23.8169218,22.2642941" id="Fill-48"></path>
                            <path d="M120.724532,84.6870942 C120.745749,70.579075 110.776664,50.6907764 100.476671,45.5029417 C107.137335,46.3148592 114.27674,52.655254 118.52126,59.7170174 C115.437228,49.1858772 106.316335,39.0691067 100.656975,35.3282146 C103.824822,35.998592 106.989634,37.5600021 109.556515,39.5401187 C105.266589,32.1544032 93.05876,24.5749734 83.9050001,25.7489551 C81.0838997,26.1095737 78.9375509,28.1631545 77.7002424,30.5406876 C77.7045982,30.5448931 77.7073701,30.5505442 77.7130458,30.5561952 L77.6647361,30.602981 C77.6747676,30.5816909 77.689023,30.5618463 77.7002424,30.5406876 C74.3351962,26.8917901 76.3678985,20.5117062 69.2455209,19.1467701 C64.3518562,18.209083 63.3403888,22.0079316 59.4837982,22.1154338 C55.1654938,22.2356838 50.730639,16.2686554 46.3782803,22.8891078 C48.6113489,23.4450177 49.7930881,24.0262917 50.9636078,25.853566 C48.8968512,25.4703431 46.1709182,25.0658299 44.2504106,25.7941638 C42.7687818,26.3555933 42.3368986,27.6583674 41.9505531,29.0104242 C44.3399023,29.5916983 45.5245453,29.0895395 47.4181263,29.151833 C48.8441857,29.199933 50.2917601,29.3894417 51.5772463,30.0443114 C54.5617548,31.5660324 54.8543848,35.6463843 54.2449701,38.5698392 C53.9367649,40.046483 53.1114086,41.3023398 52.8471573,42.8114444 C54.5220247,43.268263 55.8942308,42.903439 57.594573,42.8269521 C59.3331934,42.7478368 61.0933288,42.7379802 62.8248216,42.9358999 C63.502477,43.0123868 67.6374422,43.5271619 67.766796,44.3262002 C68.1502375,46.6909854 66.4839497,47.0742084 64.7737079,48.1193977 C62.2922272,49.6370447 58.5405715,52.1461299 60.5833053,55.5998677 C61.5492349,57.2334278 63.4455877,57.9774007 65.1530576,58.5827248 C66.5876967,59.0904032 70.0112161,60.1836925 72.0041883,57.8345463 C71.1233946,56.376433 69.0281273,54.3695064 66.435772,53.6142313 C68.5182359,52.5123996 72.1788159,53.8913977 73.776863,55.2986513 C75.2897743,52.4982062 71.5666293,50.1660133 69.7057828,50.0472089 C71.0068442,49.1561761 74.089424,49.2693294 75.545446,50.5945764 C87.1750109,48.1576411 97.0148738,56.8148526 102.554779,70.6583217 C95.6412159,61.7918884 87.0600444,55.0737903 78.7940738,56.0269851 C90.3243795,61.3717362 95.6412159,70.8746403 96.4480931,77.7639797 C94.2818132,74.6382682 88.2673904,64.5285944 79.2089299,63.1608985 C93.828679,80.9391054 100.029213,109.934337 98.5148497,130.720897 C98.4452891,131.679743 98.1469834,132.676964 97.6923973,133.659991 C104.631568,127.151115 104.407178,100.04821 99.7450306,84.8087898 C109.03382,97.4556728 106.928521,119.844777 106.65305,121.722911 C106.603289,122.049623 106.503898,122.37489 106.407146,122.698711 C111.242602,116.221112 113.278208,101.019804 106.75099,76.9733523 C115.971406,91.1081813 115.437228,105.388624 113.582189,112.163365 C115.80813,108.604885 116.555214,105.202138 117.229966,101.759571 C118.772708,83.9345789 112.433053,71.4659023 103.968168,58.258904 C112.077858,64.6685575 118.553994,74.6694149 120.724532,84.6870942 M93.9862794,32.8799772 C91.0842669,31.9521466 85.5485851,32.5716641 83.1507884,33.9251666 C82.0328021,34.5574319 80.8992406,35.3282146 80.4702612,36.6237605 C86.7588349,35.8176256 93.7236121,39.1059045 96.4750198,43.0051586 C86.2020857,39.364672 80.1122944,40.7875646 78.3608707,41.1312299 C77.6335856,40.7041125 78.7869462,39.015487 78.7755947,36.8260171 C78.7571156,33.4909523 77.8566549,31.6184693 77.8566549,31.6184693 C82.7331604,28.7431144 90.4336702,29.5916983 93.9862794,32.8799772 M75.2301132,33.9251666 C73.1476493,34.0893111 72.8109335,36.7057671 68.4997567,35.6379734 C68.079225,36.3097963 68.1161832,38.3619505 66.976946,38.3619505 C66.0323994,38.3662685 65.790851,37.6250554 65.7354136,36.9151204 C65.6914598,32.0865901 67.2283939,30.6820963 68.5649616,30.1390657 C71.2328173,29.2112351 73.0893081,29.7628081 75.3011258,30.6665887 C77.0056918,31.3637758 77.5440939,33.7427545 75.2301132,33.9251666 M76.0837161,49.1632728 C75.5723727,48.2113922 75.4715296,46.9710431 75.5893999,45.918757 C75.7301051,44.6742023 76.3422917,43.7689761 77.6704118,43.3050608 C85.7943573,40.6461559 96.4750198,48.2538411 99.7450306,54.1840717 C96.1852937,51.4220015 81.8338877,44.5468556 76.0837161,49.1632728" id="Fill-50"></path>
                            <path d="M71.5411941,32.1807793 C70.8635387,32.3023435 71.3863656,33.1538187 70.6149946,33.3349165 C69.6774437,33.3376763 70.4104045,32.1977326 69.0993115,32.6814924 C68.8279326,33.2768285 69.6107869,33.9854493 70.0965236,34.0830949 C70.8379319,34.2329146 71.9786211,33.8030372 72.2031423,33.1368654 C72.3621946,32.6842523 72.5739125,32.0138749 71.5411941,32.1807793" id="Fill-53"></path>
                            <path d="M73.5468773,66.6546013 C79.6166055,74.8945518 85.0528961,86.1483748 84.5514522,99.8886786 C81.2814414,91.9754401 78.0115626,81.7598412 70.5837518,73.229845 C72.6746632,79.457218 77.255767,92.5355554 76.2429797,105.670535 C73.8508587,97.5973576 69.643297,87.9234751 66.4173721,82.9831057 C65.9699136,97.3385901 66.8038495,120.672347 69.1760394,138.719309 C69.9274793,144.437295 69.9388308,152.941796 69.7768745,153.142738 C76.6620595,148.175559 77.8069725,128.714246 77.8069725,111.419799 C80.7730019,116.914502 83.1779263,137.439271 78.8453666,148.493729 C78.8226636,148.565747 78.7174647,148.731337 78.5754395,148.926497 C85.9421374,142.859063 86.0402087,111.00819 86.1069974,106.717039 C90.733507,122.80662 89.2505583,135.261235 88.09139,142.231003 C88.0558837,142.35559 87.9834192,142.520918 87.8897037,142.704907 C96.9752229,128.254668 101.730954,87.9672382 73.5468773,66.6546013" id="Fill-55"></path>
                            <path d="M20.804721,24.7657701 C15.0303946,32.0567313 -3.69897696,63.6543572 7.05428205,98.1331206 C17.808861,132.611621 44.1918846,147.801627 66.4937964,155.515501 C11.4408272,144.59115 -25.0262476,77.3154143 20.804721,24.7657701" id="Fill-57"></path>
                        </g>
                    </g>
                </g>
                <path d="M226.860335,109.391304 L226.860335,108.878827 C231.765777,106.955549 233.18597,104.904151 233.18597,93.8754672 L233.18597,36.4288807 C233.18597,25.4001968 231.765777,23.348799 226.860335,21.4255205 L226.860335,20.9130435 L268.03845,20.9130435 L268.03845,38.9927555 L267.521062,38.9927555 L263.004036,31.0434029 C260.034677,25.6564353 257.452234,24.3752428 253.323625,24.3752428 L244.932936,24.3752428 L244.932936,62.2031965 L253.838014,62.2031965 C258.487011,62.2031965 260.034677,60.279918 264.037313,53.9961156 L264.553202,53.9961156 L264.553202,73.7443574 L264.037313,73.7443574 C260.423093,67.4605551 258.487011,65.6653958 253.838014,65.6653958 L244.932936,65.6653958 L244.932936,105.929105 L254.22643,105.929105 C259.647761,105.929105 261.712815,105.03227 265.07059,99.3890642 L271.136781,89.2601946 L271.910615,89.2601946 L270.232477,109.391304 L226.860335,109.391304" id="Fill-60" fill="#FFFFFF"></path>
                <path d="M279.955307,87.696203 L280.844093,87.696203 C284.396286,101.854035 289.597817,107.491839 296.575445,107.491839 C302.791046,107.491839 307.485542,102.85699 307.485542,93.7095695 C307.485542,71.6576474 279.955307,71.4072724 279.955307,44.7190461 C279.955307,29.4330712 288.964023,20.9130435 300.254397,20.9130435 C305.202411,20.9130435 309.261639,22.5419365 312.560315,24.1693739 L312.560315,41.2108851 L311.673003,41.2108851 C308.627845,31.8130892 304.822134,25.047142 297.462756,25.047142 C291.373914,25.047142 287.694962,29.6834462 287.694962,36.5745809 C287.694962,57.4983599 315.351955,56.8724225 315.351955,85.9421224 C315.351955,101.60366 307.358783,111 295.306383,111 C290.74012,111 283.127224,109.622938 279.955307,107.74367 L279.955307,87.696203" id="Fill-61" fill="#FFFFFF"></path>
                <path d="M340.28374,66.1778728 C351.402087,66.1778728 354.804764,58.0989112 354.804764,44.3782333 C354.804764,31.2996414 351.795698,24.3752428 341.198618,24.3752428 L336.884103,24.3752428 L336.884103,66.1778728 L340.28374,66.1778728 Z M318.569832,109.391304 L318.569832,108.878827 C323.539351,106.955549 324.980055,104.904151 324.980055,93.8754672 L324.980055,36.4288807 C324.980055,25.4001968 323.539351,23.348799 318.569832,21.4255205 L318.569832,20.9130435 L342.508625,20.9130435 C359.643585,20.9130435 366.837989,26.682879 366.837989,43.8657563 C366.837989,64.2545943 356.374645,69.5119528 341.592228,69.5119528 L336.884103,69.5119528 L336.884103,93.8754672 C336.884103,104.904151 338.584681,106.955549 344.601294,108.878827 L344.601294,109.391304 L318.569832,109.391304 L318.569832,109.391304 Z" id="Fill-62" fill="#FFFFFF"></path>
                <path d="M386.485756,32.8758035 L377.791249,73.2012564 L394.669259,73.2012564 L386.485756,32.8758035 Z M394.669259,109.391304 L394.669259,108.874754 C401.318262,106.936189 400.294767,100.21503 395.565002,77.2090253 L376.895505,77.2090253 C371.910239,100.344168 370.886744,106.289 378.303739,108.874754 L378.303739,109.391304 L360.402235,109.391304 L360.402235,108.874754 C364.494729,106.161364 366.284731,102.024458 372.548994,74.623271 L385.208244,19.3043478 L394.541507,19.3043478 L406.560516,74.4941335 C412.058273,100.21503 413.848275,106.032226 418.324022,108.874754 L418.324022,109.391304 L394.669259,109.391304 L394.669259,109.391304 Z" id="Fill-63" fill="#FFFFFF"></path>
                <path d="M461.855337,0.254950925 C461.096736,3.06237564 458.565128,11.4831675 451.60541,11.4831675 C446.290797,11.4831675 442.241988,6.63465313 438.318142,6.63465313 C435.6601,6.63465313 433.129962,9.05816919 432.117024,11.610643 L431.105557,11.3556921 C431.864158,8.54826734 434.395766,0.127475462 441.355484,0.127475462 C446.41723,0.127475462 450.592473,4.59356346 454.769186,4.59356346 C457.427227,4.59356346 459.830932,2.55247379 460.842399,0 L461.855337,0.254950925 Z M462.108203,111 L429.966186,40.0613875 L429.966186,87.9076718 C429.966186,105.259157 432.244928,107.300247 437.052338,109.213861 L437.052338,109.723763 L418.576889,109.723763 L418.576889,109.213861 C423.387239,107.300247 425.410173,105.259157 425.410173,87.9076718 L425.410173,37.1279696 C425.410173,26.1547039 423.132902,24.1136142 418.324022,22.2 L418.324022,21.6900982 L434.522199,21.6900982 L463.374008,86.5039594 L463.374008,43.5076718 C463.374008,26.1547039 461.096736,24.1136142 456.286386,22.2 L456.286386,21.6900982 L474.636872,21.6900982 L474.636872,22.2 C469.826522,24.1136142 467.92855,26.1547039 467.92855,43.5076718 L467.92855,111 L462.108203,111 L462.108203,111 Z" id="Fill-64" fill="#FFFFFF"></path>
                <path d="M514.736567,65.7694683 C514.736567,33.8175447 511.487385,23.668624 502.11441,23.668624 C492.493172,23.668624 489.119133,34.5701254 489.119133,66.5205933 C489.119133,97.9703112 492.366863,108.24442 501.864696,108.24442 C511.612242,108.24442 514.736567,97.2177306 514.736567,65.7694683 Z M476.24581,67.3969057 C476.24581,33.1916073 487.369685,20.9130435 502.863551,20.9130435 C516.359706,20.9130435 527.731844,29.6834462 527.731844,64.5161378 C527.731844,97.7184806 517.611179,111 501.365268,111 C486.619092,111 476.24581,100.475517 476.24581,67.3969057 L476.24581,67.3969057 Z" id="Fill-65" fill="#FFFFFF"></path>
                <path d="M534.167598,109.391304 L534.167598,108.878827 C538.940021,106.955549 540.322126,104.904151 540.322126,93.8754672 L540.322126,36.4288807 C540.322126,25.4001968 538.940021,23.348799 534.167598,21.4255205 L534.167598,20.9130435 L557.910036,20.9130435 L557.910036,21.4255205 C553.136154,23.348799 551.754049,25.4001968 551.754049,36.4288807 L551.754049,105.929105 L558.790089,105.929105 C564.066024,105.929105 566.075696,105.03227 569.3405,99.3890642 L575.245461,89.2601946 L576,89.2601946 L574.366868,109.391304 L534.167598,109.391304" id="Fill-66" fill="#FFFFFF"></path>
            </g>
        </g>
    </g>
</svg>