<?xml version="1.0" encoding="UTF-8"?>
<svg width="576px" height="111px" viewBox="0 0 576 111" version="1.1" xmlns="http://www.w3.org/2000/svg" xmlns:xlink="http://www.w3.org/1999/xlink">
    <!-- Generator: Sketch 61.2 (89653) - https://sketch.com -->
    <title>LOGO EDICION POSITIVO</title>
    <desc>Created with Sketch.</desc>
    <defs>
        <polygon id="path-1" points="0.0173681856 0.0686957591 115.982123 0.0686957591 115.982123 94 0.0173681856 94"></polygon>
    </defs>
    <g id="LOGO-EDICION-POSITIVO" stroke="none" stroke-width="1" fill="none" fill-rule="evenodd">
        <g id="Group">
            <g id="Group-5">
                <path d="M0,109.391304 L0,108.878827 C4.90544153,106.955549 6.32563509,104.904151 6.32563509,93.8754672 L6.32563509,36.4288807 C6.32563509,25.4001968 4.90544153,23.348799 0,21.4255205 L0,20.9130435 L41.1781148,20.9130435 L41.1781148,38.9927555 L40.6622262,38.9927555 L36.1437011,31.0434029 C33.1743418,25.6564353 30.5933987,24.3752428 26.4632899,24.3752428 L18.0726004,24.3752428 L18.0726004,62.2031965 L26.9791786,62.2031965 C31.6251761,62.2031965 33.1743418,60.279918 37.1769782,53.9961156 L37.6928669,53.9961156 L37.6928669,73.7443574 L37.1769782,73.7443574 C33.5612584,67.4605551 31.6251761,65.6653958 26.9791786,65.6653958 L18.0726004,65.6653958 L18.0726004,105.929105 L27.3660951,105.929105 C32.7874253,105.929105 34.8524797,105.03227 38.2087556,99.3890642 L44.2764463,89.2601946 L45.0502793,89.2601946 L43.3721414,109.391304 L0,109.391304" id="Fill-47" fill="#000000"></path>
                <path d="M48.2681564,109.391304 L48.2681564,108.878827 C53.0420387,106.955549 54.4226846,104.904151 54.4226846,93.8754672 L54.4226846,36.4288807 C54.4226846,25.4001968 53.0420387,23.348799 48.2681564,21.4255205 L48.2681564,20.9130435 L72.0105951,20.9130435 L72.0105951,21.4255205 C67.2367128,23.348799 65.8560669,25.4001968 65.8560669,36.4288807 L65.8560669,105.929105 L72.8891879,105.929105 C78.1665827,105.929105 80.1762543,105.03227 83.442518,99.3890642 L89.3460196,89.2601946 L90.1005587,89.2601946 L88.4674268,109.391304 L48.2681564,109.391304" id="Fill-48" fill="#000000"></path>
                <g id="cabeza-positivo" transform="translate(101.000000, 16.000000)">
                    <g id="Group-8">
                        <mask id="mask-2" fill="white">
                            <use xlink:href="#path-1"></use>
                        </mask>
                        <g id="Clip-2"></g>
                        <path d="M73.510209,30.9932668 C70.2903682,27.4791493 72.2386676,21.3155252 65.4523156,19.9991309 C60.7937775,19.0957215 59.8319083,22.7549396 56.1626163,22.8585604 C52.0507566,22.9745621 47.8307188,17.2240017 43.6886662,23.6058289 C45.8138206,24.1404144 46.9386999,24.7012601 48.0526285,26.4610789 C46.085087,26.0923339 43.4913958,25.7013507 41.663555,26.4030386 C40.2537208,26.9445638 39.8426757,28.2015772 39.4741038,29.5028305 C41.7485799,30.0636762 42.8761969,29.5801913 44.6779906,29.6409916 C46.0344005,29.6865721 47.4127903,29.8688943 48.636383,30.5001611 C51.4767013,31.9671762 51.7561807,35.8985369 51.1752421,38.715146 C50.881996,40.1392617 50.0969036,41.349354 49.8461308,42.8039883 C51.4397033,43.2432332 52.7454268,42.8923104 54.3622306,42.8177886 C56.0173682,42.7417685 57.6931436,42.7334883 59.3413918,42.92275 C59.9853756,42.9973507 63.9218665,43.4932164 64.0451409,44.2640638 C64.4095671,46.5432483 62.8243641,46.912151 61.1952798,47.9191023 C58.8330411,49.3805185 55.2637923,51.7992836 57.2080243,55.127057 C58.1274201,56.7017148 59.9319514,57.4187013 61.5569683,58.0016275 C62.9215914,58.4906326 66.1798382,59.5460034 68.0775293,57.2819597 C67.2389346,55.875745 65.2454241,53.9418054 62.7777451,53.2138574 C64.760383,52.151547 68.2432771,53.4804799 69.7655914,54.8369346 C71.2042886,52.1377466 67.6610088,49.8916829 65.889408,49.7756023 C67.1280189,48.9177735 70.061497,49.0269144 71.448178,50.3033272 C82.5164396,47.9564027 91.8816993,56.2983507 97.1537154,69.6395688 C90.5730816,61.0944799 82.4069319,54.6200721 74.5391908,55.5386225 C85.5138233,60.6897752 90.5730816,69.848151 91.3404181,76.4869799 C89.2793257,73.4745638 83.5559811,63.7328674 74.9338098,62.4136342 C88.8475523,79.5467114 94.749238,107.488842 93.3076467,127.519832 C93.0284019,131.42099 88.9711396,135.991661 85.4262171,137.318859 C92.7554147,126.344044 89.3591099,102.850352 88.6864194,99.5926846 C83.606824,74.9989094 72.9512502,67.6144681 69.5450115,65.7799698 C75.3215455,73.7213926 78.8440189,79.4158054 80.0196628,97.808104 C76.9065138,90.1816443 73.7952421,80.3384564 66.7251868,72.1162953 C68.7160378,78.1185738 73.0745246,90.7218289 72.1112475,103.379497 C69.8355199,95.5992617 65.8304302,86.2781208 62.7613189,81.5150336 C62.3352556,95.3508557 63.1284828,117.836728 65.3851247,135.227517 C66.100445,140.738188 67.1650169,147.542936 66.4141065,148.549966 C65.456383,149.833003 64.2575078,151.215403 62.6242778,152.040268 C51.7424922,149.042836 36.5570519,141.405336 25.6806635,131.178893 C4.8077033,111.554027 -5.50417262,84.8562919 3.00723938,56.0470268 C6.06821578,45.6826594 10.9459258,36.8737869 17.0815671,28.0980352 C17.5748213,27.3949279 19.2738341,25.4251074 19.6985678,25.072844 C18.1036655,22.3916359 18.1844666,19.5169866 19.0778935,17.4574245 C21.1591666,12.6585352 27.3016129,11.695745 30.1693082,11.5686958 C31.4052596,9.23691946 35.389621,6.05984564 38.4135995,4.82073322 C42.4062522,1.92266275 48.0554444,0.0716828859 52.7947835,0.0716828859 C54.285497,0.0716828859 56.3804585,0.0122231544 57.9863115,0.42386745 C60.2456912,-0.294380872 61.7926446,0.311966443 62.2132326,1.33563591 C53.9429724,3.66182047 55.7269319,14.0330487 57.1532704,15.8923087 C57.808205,-0.355181208 68.511884,-0.414562081 70.6520566,4.26130705 C68.7489683,3.24181711 64.8836575,1.6837198 62.4735482,5.46729866 C61.5405421,6.93281544 59.9826379,12.0120487 61.8816588,15.4917047 C63.3724504,11.0534379 64.6617478,9.16925839 65.538592,8.3376896 C70.5068806,3.62176007 74.8926662,6.09162584 74.8995496,7.35833893 C70.1958004,4.71301174 65.7756763,10.9760772 65.7756763,16.4917953 C67.3651032,13.7332265 71.448178,10.4967718 73.6102522,10.5063926 C72.8717788,11.1777987 69.7011382,13.7332265 69.72171,17.5526862 C72.3058584,15.5207248 74.4391477,13.4211023 77.3124747,12.561854 C77.4313688,11.3352013 76.5161969,10.3683104 75.7652866,9.47728188 C77.4908159,9.4165604 78.9769926,10.3157903 80.3442751,11.9954883 C93.2489818,11.2150201 94.4199326,22.0062517 92.6537289,26.7429211 C95.1755361,28.1822567 99.3626433,31.9092148 100.539069,35.0669681 C97.1169521,31.9092148 88.2530816,25.2123456 79.404855,26.3602181 C76.6961025,26.7111409 74.6364963,28.7210218 73.46359,31.0389262 L73.510209,30.9932668 Z M56.0242454,81.4779698 C48.1745732,108.920134 53.9744949,129.618272 59.9606581,145.617198 C62.2379501,130.217601 59.8621011,102.231309 56.0242454,81.4779698 L56.0242454,81.4779698 Z M51.3848712,79.5467114 C35.5088281,108.920134 43.3570924,133.875084 52.7961915,143.794765 C46.8112798,117.809128 47.5429481,104.782399 51.3848712,79.5467114 L51.3848712,79.5467114 Z M29.9843183,125.143809 C29.4692407,111.835554 30.6913473,90.1524664 41.216998,72.2628154 C24.8339339,87.198406 22.9924046,110.357735 29.9843183,125.143809 L29.9843183,125.143809 Z M42.8227728,138.131107 C35.1690411,117.745252 38.5368739,100.698289 43.1789858,83.2751678 C32.9411841,96.8176342 30.1830748,123.555587 42.8227728,138.131107 L42.8227728,138.131107 Z M31.7902576,72.2893121 C17.9817991,81.2816107 13.9494107,101.856728 20.7919245,116.506376 C21.1591666,101.124916 22.3813513,87.6881208 31.7902576,72.2893121 L31.7902576,72.2893121 Z M12.1160944,98.8995134 C13.7753715,86.2836409 20.3042239,72.1660554 29.3171032,61.5793842 C16.0265381,67.3603842 8.27690897,83.3264262 12.1160944,98.8995134 L12.1160944,98.8995134 Z M48.3390695,50.5768104 C47.020909,50.8020319 41.7869076,51.6598607 41.8855428,54.9501762 C43.8956359,54.2761678 47.2921753,53.2539178 48.636383,53.7290436 C46.433087,54.8217936 44.9053756,56.1589279 44.0723345,57.4380218 C45.5424761,58.530693 52.1247525,58.9201779 53.9484477,54.5951527 C55.2555792,51.4926795 53.3647714,48.1401443 50.0915064,47.4508372 C48.6582846,47.1496745 43.4529899,47.015693 42.1376453,50.1058641 C44.0325988,49.5131594 47.5566365,49.8253624 48.3390695,50.5768104 L48.3390695,50.5768104 Z M7.12050708,80.4953859 C12.1160944,66.0051913 20.3589777,59.7200453 25.6806635,55.5331023 C14.615296,57.1604379 5.51739177,66.2510738 7.12050708,80.4953859 L7.12050708,80.4953859 Z M26.9028483,47.0322534 C20.4260904,45.3967164 8.69483749,49.6195403 7.9590236,60.7049161 C14.8043533,53.1917768 19.8150371,49.496599 26.9028483,47.0322534 L26.9028483,47.0322534 Z M39.2083129,34.1137987 C37.7161915,35.591854 37.3379987,38.4595638 38.1806608,40.486005 C38.7643372,41.8908003 40.1756575,42.3977852 41.5923749,42.4696258 C45.2163776,42.6547081 48.4773621,39.5356745 46.8839461,35.7866359 C45.9453864,34.5088826 42.9173405,37.7924161 39.2083129,34.1137987 L39.2083129,34.1137987 Z M76.0875523,21.8680906 C80.5226163,12.9541779 90.2484693,16.3785537 89.2973163,24.232995 C89.1588672,25.3753473 89.7822792,25.273146 91.0525691,25.8160117 C92.1789346,24.3462366 91.9294134,21.1497634 91.367795,19.4286644 C89.1971949,12.785656 77.1177073,11.5493826 76.0875523,21.8680906 L76.0875523,21.8680906 Z M61.9612084,63.3958238 C59.7866972,58.3607517 52.9400378,59.0597584 50.3408712,63.185901 C50.5531598,64.0920705 51.1478651,64.571297 51.8150802,64.8324782 C52.5523021,64.259094 53.2058287,63.3530034 54.3786568,63.0532601 L54.3786568,65.7096275 C55.5309912,66.264953 56.2831531,65.6363674 56.9531841,65.0286007 C57.4998624,65.4485252 57.9383628,65.7855688 58.3357195,66.0908322 C60.03747,65.6212265 61.6432448,64.3613742 61.9612084,63.3958238 L61.9612084,63.3958238 Z M36.9351666,18.590156 C26.8261146,9.11681711 17.8474956,18.7089178 22.2169332,23.0021628 C21.8319353,20.5681779 23.666503,17.3095638 26.8275226,16.9352987 C29.9528739,16.5636359 31.821702,18.0113305 34.0222603,20.0888725 C34.9183466,19.492146 35.389621,19.1288423 36.9351666,18.590156 L36.9351666,18.590156 Z M56.5832825,1.91714262 C49.8393257,2.64233054 48.5307862,10.1362282 51.8219636,14.1615101 C52.2768901,8.63743289 53.7634579,4.80141275 56.5832825,1.91714262 L56.5832825,1.91714262 Z M13.754878,44.5886477 C16.1484828,42.6879077 21.1591666,40.2470621 26.9028483,39.0245889 C21.1591666,34.9578272 15.4154066,39.2703926 13.754878,44.5886477 L13.754878,44.5886477 Z M48.8679137,3.65212081 C44.5464248,5.81948322 42.8145597,12.2234698 47.1634255,15.2321007 C46.5687202,9.17753859 47.9813702,5.90788423 48.8679137,3.65212081 L48.8679137,3.65212081 Z M43.5366069,5.51973993 C40.1783169,7.11521644 39.4713661,12.9790185 42.7624653,15.0524597 C42.488383,12.5522332 41.9718975,8.81841443 43.5366069,5.51973993 L43.5366069,5.51973993 Z M38.243706,7.97856544 C34.7375024,10.8738758 36.088437,14.1159295 39.1946244,15.2321007 C37.7682077,12.5342534 37.7106379,10.5133322 38.243706,7.97856544 L38.243706,7.97856544 Z M32.7726204,21.1677433 C31.7189993,19.468646 26.8617829,17.3606644 25.2805691,20.3886946 C28.6100742,19.1896426 30.0378206,21.2879245 31.2188618,22.7148792 C31.8464194,22.0862936 32.3205098,21.6774883 32.7726204,21.1677433 L32.7726204,21.1677433 Z M83.1367229,19.9631711 C85.6960755,20.868 85.3401753,22.6167785 85.4590695,23.2053037 C85.4919218,23.3723272 87.1353203,23.9276527 87.4216049,24.0450738 C87.9808766,21.3680453 85.4590695,19.0694614 83.1367229,19.9631711 L83.1367229,19.9631711 Z M42.800793,32.2516997 C42.488383,33.1730889 43.0241888,34.0447181 43.8900823,34.2118993 C44.6847957,34.3638607 45.700089,33.8899966 45.8630991,32.9948674 C45.9234066,32.8347047 45.5863574,32.6274631 45.2342117,32.5639027 C44.6944167,32.5901628 44.9122589,33.5363926 44.0408119,33.4010705 C43.269408,33.1303473 44.0901686,32.3194396 42.800793,32.2516997 L42.800793,32.2516997 Z" id="Fill-1" fill="#0A0B09" mask="url(#mask-2)"></path>
                        <path d="M114.815752,85.1559564 C115.878759,93.2437416 112.005314,99.2898658 111.022873,100.844966 C112.901713,82.9952181 106.748159,70.7247483 98.4983142,57.6888725 C106.748159,64.2931611 113.224761,74.8506544 114.815752,85.1559564" id="Fill-3" fill="#0A0B09" mask="url(#mask-2)"></path>
                        <path d="M94.4793796,83.2751678 C103.31822,95.4628356 101.31501,117.039463 101.053756,118.849279 C100.539852,122.24495 97.1732704,125.682416 95.9428726,126.290419 C98.0407283,117.869849 98.9160081,97.9618792 94.4793796,83.2751678" id="Fill-4" fill="#0A0B09" mask="url(#mask-2)"></path>
                        <path d="M73.6474848,32.0173305 C78.2886581,29.2463809 85.6170735,30.0627299 88.9985165,33.232943 C86.2365745,32.3378138 80.9684693,32.9359597 78.686797,34.2398943 C77.6206608,34.8490805 76.5427916,35.5922483 76.1344842,36.8396409 C82.1190829,36.0647718 88.7482131,39.2335654 91.3662306,42.9908054 C81.5903169,39.4822081 75.7942279,40.8524631 74.1270506,41.185406 C73.435118,40.7723423 74.5339501,39.1451644 74.5216696,37.0344228 C74.5052434,33.8213893 73.6474848,32.0173305 73.6474848,32.0173305" id="Fill-5" fill="#0A0B09" mask="url(#mask-2)"></path>
                        <path d="M101.146837,75.7244128 C109.92232,89.3449497 109.664976,103.34401 108.708348,106.643473 C107.790829,109.811242 105.973783,113.911124 103.226703,116.506376 C103.340121,116.144413 107.772839,100.441208 101.146837,75.7244128" id="Fill-6" fill="#0A0B09" mask="url(#mask-2)"></path>
                        <path d="M95.1755361,45.3967164 C106.748159,46.8264312 119.857802,66.0038507 114.907269,74.764698 C112.401106,64.3683138 105.155604,50.4870688 95.1755361,45.3967164" id="Fill-7" fill="#0A0B09" mask="url(#mask-2)"></path>
                    </g>
                    <path d="M71.4894414,49.1656541 C71.0247623,48.2494108 70.9331564,47.0556945 71.040528,46.0413666 C71.1674761,44.8434749 71.7250313,43.9726892 72.9317476,43.5255971 C80.3178974,40.9656304 90.0276672,48.2894324 93,54 C89.763161,51.3406883 76.7171755,44.7206526 71.4894414,49.1656541" id="Fill-9" fill="#0A0B09"></path>
                    <path d="M63.1258117,38.9999827 C62.2706539,39.0039522 62.0516365,38.3227216 62.0008078,37.6704523 C61.961663,33.2311698 63.3526432,31.9398708 64.5624112,31.4403819 C66.9779285,30.5878658 68.6608575,31.0951779 70.6631963,31.9266313 C72.2065882,32.5656611 72.6941866,34.7543852 70.5980045,34.9217591 C68.7130258,35.0719067 68.4092442,37.47675 64.503694,36.4963526 C64.1230368,37.1130408 64.1568978,38.9999827 63.1258117,38.9999827 M65.0473305,33.7779747 C64.8021917,34.3248549 65.5100727,34.9757701 65.9493727,35.066641 C66.620788,35.2050535 67.6544788,34.8083962 67.8565285,34.1956949 C68.001275,33.7806076 68.1929059,33.1639194 67.2581934,33.3181291 C66.6441558,33.4301379 67.1174656,34.211492 66.4186639,34.3788659 C65.5700551,34.3814987 66.2335818,33.3325721 65.0473305,33.7779747" id="Fill-10" fill="#0A0B09"></path>
                    <path d="M97,36 C104.034712,37.5100185 111.104822,43.9551705 109.855551,49 C107.073082,44.2947736 102.099595,39.423698 97,36" id="Fill-11" fill="#0A0B09"></path>
                </g>
                <path d="M226.860335,109.391304 L226.860335,108.878827 C231.765777,106.955549 233.18597,104.904151 233.18597,93.8754672 L233.18597,36.4288807 C233.18597,25.4001968 231.765777,23.348799 226.860335,21.4255205 L226.860335,20.9130435 L268.03845,20.9130435 L268.03845,38.9927555 L267.521062,38.9927555 L263.004036,31.0434029 C260.034677,25.6564353 257.452234,24.3752428 253.323625,24.3752428 L244.932936,24.3752428 L244.932936,62.2031965 L253.838014,62.2031965 C258.487011,62.2031965 260.034677,60.279918 264.037313,53.9961156 L264.553202,53.9961156 L264.553202,73.7443574 L264.037313,73.7443574 C260.423093,67.4605551 258.487011,65.6653958 253.838014,65.6653958 L244.932936,65.6653958 L244.932936,105.929105 L254.22643,105.929105 C259.647761,105.929105 261.712815,105.03227 265.07059,99.3890642 L271.136781,89.2601946 L271.910615,89.2601946 L270.232477,109.391304 L226.860335,109.391304" id="Fill-60" fill="#000000"></path>
                <path d="M279.955307,87.696203 L280.844093,87.696203 C284.396286,101.854035 289.597817,107.491839 296.575445,107.491839 C302.791046,107.491839 307.485542,102.85699 307.485542,93.7095695 C307.485542,71.6576474 279.955307,71.4072724 279.955307,44.7190461 C279.955307,29.4330712 288.964023,20.9130435 300.254397,20.9130435 C305.202411,20.9130435 309.261639,22.5419365 312.560315,24.1693739 L312.560315,41.2108851 L311.673003,41.2108851 C308.627845,31.8130892 304.822134,25.047142 297.462756,25.047142 C291.373914,25.047142 287.694962,29.6834462 287.694962,36.5745809 C287.694962,57.4983599 315.351955,56.8724225 315.351955,85.9421224 C315.351955,101.60366 307.358783,111 295.306383,111 C290.74012,111 283.127224,109.622938 279.955307,107.74367 L279.955307,87.696203" id="Fill-61" fill="#000000"></path>
                <path d="M340.28374,66.1778728 C351.402087,66.1778728 354.804764,58.0989112 354.804764,44.3782333 C354.804764,31.2996414 351.795698,24.3752428 341.198618,24.3752428 L336.884103,24.3752428 L336.884103,66.1778728 L340.28374,66.1778728 Z M318.569832,109.391304 L318.569832,108.878827 C323.539351,106.955549 324.980055,104.904151 324.980055,93.8754672 L324.980055,36.4288807 C324.980055,25.4001968 323.539351,23.348799 318.569832,21.4255205 L318.569832,20.9130435 L342.508625,20.9130435 C359.643585,20.9130435 366.837989,26.682879 366.837989,43.8657563 C366.837989,64.2545943 356.374645,69.5119528 341.592228,69.5119528 L336.884103,69.5119528 L336.884103,93.8754672 C336.884103,104.904151 338.584681,106.955549 344.601294,108.878827 L344.601294,109.391304 L318.569832,109.391304 L318.569832,109.391304 Z" id="Fill-62" fill="#000000"></path>
                <path d="M386.485756,32.8758035 L377.791249,73.2012564 L394.669259,73.2012564 L386.485756,32.8758035 Z M394.669259,109.391304 L394.669259,108.874754 C401.318262,106.936189 400.294767,100.21503 395.565002,77.2090253 L376.895505,77.2090253 C371.910239,100.344168 370.886744,106.289 378.303739,108.874754 L378.303739,109.391304 L360.402235,109.391304 L360.402235,108.874754 C364.494729,106.161364 366.284731,102.024458 372.548994,74.623271 L385.208244,19.3043478 L394.541507,19.3043478 L406.560516,74.4941335 C412.058273,100.21503 413.848275,106.032226 418.324022,108.874754 L418.324022,109.391304 L394.669259,109.391304 L394.669259,109.391304 Z" id="Fill-63" fill="#000000"></path>
                <path d="M461.855337,0.254950925 C461.096736,3.06237564 458.565128,11.4831675 451.60541,11.4831675 C446.290797,11.4831675 442.241988,6.63465313 438.318142,6.63465313 C435.6601,6.63465313 433.129962,9.05816919 432.117024,11.610643 L431.105557,11.3556921 C431.864158,8.54826734 434.395766,0.127475462 441.355484,0.127475462 C446.41723,0.127475462 450.592473,4.59356346 454.769186,4.59356346 C457.427227,4.59356346 459.830932,2.55247379 460.842399,0 L461.855337,0.254950925 Z M462.108203,111 L429.966186,40.0613875 L429.966186,87.9076718 C429.966186,105.259157 432.244928,107.300247 437.052338,109.213861 L437.052338,109.723763 L418.576889,109.723763 L418.576889,109.213861 C423.387239,107.300247 425.410173,105.259157 425.410173,87.9076718 L425.410173,37.1279696 C425.410173,26.1547039 423.132902,24.1136142 418.324022,22.2 L418.324022,21.6900982 L434.522199,21.6900982 L463.374008,86.5039594 L463.374008,43.5076718 C463.374008,26.1547039 461.096736,24.1136142 456.286386,22.2 L456.286386,21.6900982 L474.636872,21.6900982 L474.636872,22.2 C469.826522,24.1136142 467.92855,26.1547039 467.92855,43.5076718 L467.92855,111 L462.108203,111 L462.108203,111 Z" id="Fill-64" fill="#000000"></path>
                <path d="M514.736567,65.7694683 C514.736567,33.8175447 511.487385,23.668624 502.11441,23.668624 C492.493172,23.668624 489.119133,34.5701254 489.119133,66.5205933 C489.119133,97.9703112 492.366863,108.24442 501.864696,108.24442 C511.612242,108.24442 514.736567,97.2177306 514.736567,65.7694683 Z M476.24581,67.3969057 C476.24581,33.1916073 487.369685,20.9130435 502.863551,20.9130435 C516.359706,20.9130435 527.731844,29.6834462 527.731844,64.5161378 C527.731844,97.7184806 517.611179,111 501.365268,111 C486.619092,111 476.24581,100.475517 476.24581,67.3969057 L476.24581,67.3969057 Z" id="Fill-65" fill="#000000"></path>
                <path d="M534.167598,109.391304 L534.167598,108.878827 C538.940021,106.955549 540.322126,104.904151 540.322126,93.8754672 L540.322126,36.4288807 C540.322126,25.4001968 538.940021,23.348799 534.167598,21.4255205 L534.167598,20.9130435 L557.910036,20.9130435 L557.910036,21.4255205 C553.136154,23.348799 551.754049,25.4001968 551.754049,36.4288807 L551.754049,105.929105 L558.790089,105.929105 C564.066024,105.929105 566.075696,105.03227 569.3405,99.3890642 L575.245461,89.2601946 L576,89.2601946 L574.366868,109.391304 L534.167598,109.391304" id="Fill-66" fill="#000000"></path>
            </g>
        </g>
    </g>
</svg>