<svg id="Layer_1" data-name="Layer 1" xmlns="http://www.w3.org/2000/svg" viewBox="0 0 4000 2000"><defs><style>.cls-1{fill:#f5f5eb;}.cls-2{fill:#fff;}.cls-3{fill:#071822;}</style></defs><rect class="cls-1" width="4000" height="2000"/><path class="cls-2" d="M1752.45,0h495.1V1603.36h-495.1Z"/><path class="cls-3" d="M2247.54,1026.45c-7.64,1.36-17.13,29.22-17.13,29.22s-207.3-2.88-211-5.7c-5.07-3.9-9.29-14.76-7.67-24.88,8.29-8.6,13.91-25.25,13.91-44.38,0-27.16-.08-49.25-24.68-50.47v-.12c-.35,0-.65,0-1,.06s-.64-.06-1-.06v.12c-24.6,1.22-24.68,23.31-24.68,50.47,0,19.13,5.62,35.78,13.91,44.38,1.62,10.12-2.6,21-7.67,24.88-3.68,2.82-211,5.7-211,5.7s-9.49-27.86-17.13-29.22c0,0-.31,35.56,5.23,42.21,1,1.24,6.44.9,6.44.9l6,7.52,180,25.43v3.77h0v125l20.49,336a110.09,110.09,0,0,0,2.2,21.23c.31,1.55,3.18,3,3.45,4.33.42,2.07.46,10.27.46,10.27s13.93.4,15.18,0c.85-.28-.47-4.22.14-11,.11-1.19,2.26-2.47,2.36-3.83.41-5.68.76-12.8,1-21,2.54-75.12,4.32-259.68,4.32-259.68h.22s1.78,184.56,4.32,259.68c.28,8.22.63,15.34,1,21,.1,1.36,2.25,2.64,2.36,3.83.61,6.77-.71,10.71.14,11,1.25.4,15.18,0,15.18,0s0-8.2.46-10.27c.27-1.36,3.14-2.78,3.45-4.33a110.09,110.09,0,0,0,2.2-21.23l20.49-336v-125h0v-3.77l180-25.43,6-7.52s5.4.34,6.44-.9C2247.85,1062,2247.54,1026.45,2247.54,1026.45Z"/></svg>