<?xml version="1.0" encoding="utf-8"?>
<!-- Generator: Adobe Illustrator 24.1.0, SVG Export Plug-In . SVG Version: 6.00 Build 0)  -->
<svg version="1.1" id="Layer_1" xmlns="http://www.w3.org/2000/svg" xmlns:xlink="http://www.w3.org/1999/xlink" x="0px" y="0px"
	 viewBox="0 0 4000 2000" style="enable-background:new 0 0 4000 2000;" xml:space="preserve">
<style type="text/css">
	.st0{fill:#F5F5EB;}
	.st1{fill:#FFFFFF;}
	.st2{fill:#071822;}
</style>
<rect class="st0" width="4000" height="2000"/>
<path class="st1" d="M1752.45,0h495.09v1603.36h-495.09V0z"/>
<path class="st2" d="M2247.54,1026.45c-7.64,1.36-17.13,29.22-17.13,29.22s-207.3-2.88-210.98-5.7c-5.08-3.9-9.3-14.75-7.67-24.88
	c8.29-8.6,13.91-25.25,13.91-44.37c0-27.16-0.08-49.26-24.68-50.47v-0.12c-0.35,0-0.65,0.05-0.99,0.06
	c-0.34-0.01-0.64-0.06-0.99-0.06v0.12c-24.6,1.22-24.68,23.31-24.68,50.47c0,19.13,5.62,35.77,13.91,44.37
	c1.63,10.13-2.59,20.98-7.67,24.88c-3.68,2.83-210.98,5.7-210.98,5.7s-9.49-27.86-17.13-29.22c0,0-0.31,35.55,5.24,42.2
	c1.04,1.25,6.44,0.91,6.44,0.91l6.05,7.52l180.05,25.42v3.78l0.02-0.01v125.04l20.5,336.04c0,7.87,1,15.24,2.19,21.23
	c0.31,1.55,3.18,2.97,3.46,4.33c0.42,2.08,0.46,10.27,0.46,10.27s13.93,0.4,15.18,0c0.86-0.28-0.46-4.22,0.14-10.99
	c0.11-1.19,2.26-2.47,2.36-3.83c0.41-5.68,0.76-12.8,1.04-21.02c2.55-75.12,4.32-259.69,4.32-259.69h0.22
	c0,0,1.78,184.56,4.32,259.69c0.28,8.22,0.62,15.34,1.04,21.02c0.1,1.36,2.25,2.64,2.36,3.83c0.61,6.77-0.71,10.71,0.14,10.99
	c1.25,0.4,15.18,0,15.18,0s0.04-8.19,0.46-10.27c0.27-1.36,3.15-2.78,3.46-4.33c1.19-5.99,2.19-13.36,2.19-21.23l20.5-336.04
	v-125.04l0.02,0.01v-3.78l180.05-25.42l6.05-7.52c0,0,5.4,0.34,6.44-0.91C2247.85,1062.01,2247.54,1026.45,2247.54,1026.45z"/>
</svg>
