<svg width="260" height="96" viewBox="0 0 260 96" fill="none" xmlns="http://www.w3.org/2000/svg">
<line x1="260" y1="75.5" x2="238" y2="75.5" stroke="#FFE34F"/>
<line x1="22" y1="75.5" x2="-4.37114e-08" y2="75.5" stroke="#FFE34F"/>
<path fill-rule="evenodd" clip-rule="evenodd" d="M0 49.2755V49.0446C2.21426 48.1783 2.85532 47.2542 2.85532 42.2864V16.4095C2.85532 11.4417 2.21426 10.5176 0 9.65126V9.42041H18.5873V17.5644H18.3545L16.3149 13.9836C14.9745 11.5571 13.8095 10.98 11.9452 10.98H8.15777V28.0196H12.1781C14.2753 28.0196 14.9745 27.1532 16.7813 24.3227H17.0141V33.2183H16.7813C15.1492 30.3878 14.2753 29.5791 12.1781 29.5791H8.15777V47.7159H12.3528C14.7999 47.7159 15.732 47.312 17.247 44.77L19.9859 40.2074H20.3352L19.5777 49.2755H0Z" fill="white"/>
<path fill-rule="evenodd" clip-rule="evenodd" d="M21.7877 49.2755V49.0446C23.9426 48.1783 24.5658 47.2542 24.5658 42.2864V16.4095C24.5658 11.4417 23.9426 10.5176 21.7877 9.65126V9.42041H32.5048V9.65126C30.3499 10.5176 29.7267 11.4417 29.7267 16.4095V47.7159H32.9014C35.2835 47.7159 36.1907 47.312 37.665 44.77L40.3298 40.2074H40.6704L39.9332 49.2755H21.7877Z" fill="white"/>
<mask id="mask0" mask-type="alpha" maskUnits="userSpaceOnUse" x="44" y="3" width="57" height="46">
<path d="M44.3676 3.87305H100.773V48.863H44.3676V3.87305Z" fill="white"/>
</mask>
<g mask="url(#mask0)">
<path fill-rule="evenodd" clip-rule="evenodd" d="M67.159 23.6012C67.536 23.6725 68.0175 23.4508 68.0951 23.0323C68.1233 22.9571 67.9637 22.8609 67.7969 22.831C67.5405 22.8431 67.6437 23.2852 67.2308 23.2222C66.8646 23.096 67.2545 22.7169 66.6422 22.6851C66.4947 23.1157 66.7486 23.5235 67.159 23.6012Z" fill="white"/>
<path fill-rule="evenodd" clip-rule="evenodd" d="M71.3836 74.8236C68.5444 62.6768 68.8919 56.5882 70.7142 44.7925C63.184 58.5224 66.9067 70.1868 71.3836 74.8236Z" fill="white"/>
<path fill-rule="evenodd" clip-rule="evenodd" d="M72.914 45.6948C69.1912 58.522 71.942 68.1968 74.7811 75.675C75.8609 68.4772 74.7344 55.3958 72.914 45.6948Z" fill="white"/>
<path fill-rule="evenodd" clip-rule="evenodd" d="M60.564 66.1055C60.3197 59.8849 60.8993 49.7495 65.8916 41.3877C58.121 48.3683 57.2477 59.1943 60.564 66.1055Z" fill="white"/>
<path fill-rule="evenodd" clip-rule="evenodd" d="M66.6529 72.1762C63.0231 62.6473 64.6203 54.6786 66.8222 46.5347C61.9664 52.8648 60.6584 65.3626 66.6529 72.1762Z" fill="white"/>
<path fill-rule="evenodd" clip-rule="evenodd" d="M79.5173 15.8849C80.3874 14.8006 81.7121 13.8947 83.6812 13.3295C83.0862 10.418 78.7806 9.47708 77.5391 15.3186C78.2933 14.0297 80.2297 12.516 81.2556 12.5211C80.9048 12.8352 79.507 14.0998 79.5173 15.8849Z" fill="white"/>
<path fill-rule="evenodd" clip-rule="evenodd" d="M85.7738 16.9414C86.9876 17.3644 86.8183 18.1818 86.8747 18.457C86.8907 18.5353 87.6697 18.794 87.8057 18.8495C88.0705 17.5982 86.8747 16.5234 85.7738 16.9414Z" fill="white"/>
<path fill-rule="evenodd" clip-rule="evenodd" d="M89.5277 19.6773C90.0618 18.9899 89.9438 17.4959 89.6771 16.6913C89.0956 14.9367 87.0072 13.9627 85.224 14.3691C83.5242 14.7564 82.5848 16.302 82.4297 17.8317C84.5341 13.6651 89.1462 15.2661 88.6954 18.937C88.6294 19.4709 88.925 19.4231 89.5277 19.6773Z" fill="white"/>
<path fill-rule="evenodd" clip-rule="evenodd" d="M61.014 18.3621C61.3115 18.0678 61.5365 17.8774 61.7507 17.6384C61.2506 16.8446 58.9467 15.859 58.1972 17.2746C59.7764 16.714 60.4536 17.6945 61.014 18.3621Z" fill="white"/>
<path fill-rule="evenodd" clip-rule="evenodd" d="M64.4512 26.5347C64.7282 27.1909 65.397 27.4278 66.0696 27.4616C67.7887 27.5483 69.3346 26.09 68.5793 24.338C68.1343 23.7404 66.6974 25.2751 64.9385 23.5557C64.2313 24.2469 64.0517 25.5867 64.4512 26.5347Z" fill="white"/>
<path fill-rule="evenodd" clip-rule="evenodd" d="M68.7117 14.7301C68.4296 11.8995 69.0996 10.3711 69.5196 9.31738C67.4709 10.3304 66.6489 13.3241 68.7117 14.7301Z" fill="white"/>
<path fill-rule="evenodd" clip-rule="evenodd" d="M66.6246 14.6458C66.4945 13.4767 66.2489 11.7324 66.9914 10.1899C65.3987 10.9354 65.0633 13.6767 66.6246 14.6458Z" fill="white"/>
<path fill-rule="evenodd" clip-rule="evenodd" d="M70.2188 37.1447C70.3194 37.5684 70.6016 37.7926 70.9176 37.9137C71.2671 37.6461 71.5774 37.2224 72.1334 37.0822V38.3239C72.681 38.5839 73.0374 38.2895 73.3548 38.006C73.6145 38.2023 73.8222 38.3596 74.0102 38.5023C74.8174 38.2825 75.5791 37.6945 75.7305 37.2428C74.6988 34.8894 71.4511 35.2162 70.2188 37.1447Z" fill="white"/>
<path fill-rule="evenodd" clip-rule="evenodd" d="M73.1798 8.50635C69.9808 8.84532 69.3601 12.348 70.9214 14.2293C71.1375 11.6478 71.8422 9.85442 73.1798 8.50635Z" fill="white"/>
<path fill-rule="evenodd" clip-rule="evenodd" d="M76.7973 8.49358C75.3424 8.0374 73.9498 9.22368 73.5073 9.97354C72.4128 11.8287 72.9719 14.4249 73.4496 15.0384C73.5368 12.9029 74.001 11.3668 74.6454 10.3099C75.2565 9.30845 76.0291 8.73695 76.7973 8.49358Z" fill="white"/>
<path fill-rule="evenodd" clip-rule="evenodd" d="M64.07 11.7338C62.9555 12.9755 63.6013 14.2586 64.9324 14.7301C64.281 13.5171 64.2348 12.5946 64.4566 11.4707C64.3271 11.5599 64.1989 11.6466 64.07 11.7338Z" fill="white"/>
<path fill-rule="evenodd" clip-rule="evenodd" d="M77.4266 11.5074C78.8738 10.1536 80.2145 10.0682 81.0359 10.3396C79.6144 8.6507 76.9483 8.65704 75.9736 10.1657C75.5305 10.8506 74.7913 13.225 75.6921 14.8515C76.3993 12.7764 77.0111 11.896 77.4266 11.5074Z" fill="white"/>
<path fill-rule="evenodd" clip-rule="evenodd" d="M70.1004 29.7901C69.4207 29.6493 66.9514 29.5863 66.3282 31.0312C67.2272 30.754 68.8981 30.9 69.2694 31.251C68.6442 31.3561 66.1621 31.7575 66.2083 33.2954C67.1618 32.98 68.7725 32.5028 69.4098 32.7245C68.3653 33.2355 67.6407 33.8605 67.2451 34.4581C67.9434 34.969 71.0648 35.1513 71.9298 33.1291C72.5497 31.6791 71.6528 30.1119 70.1004 29.7901Z" fill="white"/>
<path fill-rule="evenodd" clip-rule="evenodd" d="M52.0892 53.8388C52.8766 47.9413 55.9723 41.3423 60.2478 36.394C53.9442 39.0966 50.2682 46.5587 52.0892 53.8388Z" fill="white"/>
<path fill-rule="evenodd" clip-rule="evenodd" d="M50.1173 35.985C53.3643 32.4734 55.7406 30.7463 59.1024 29.5944C56.0304 28.8299 50.4661 30.8036 50.1173 35.985Z" fill="white"/>
<path fill-rule="evenodd" clip-rule="evenodd" d="M52.8662 28.4519C54.0018 27.5631 56.378 26.4227 59.1025 25.8506C56.378 23.9503 53.6542 25.966 52.8662 28.4519Z" fill="white"/>
<path fill-rule="evenodd" clip-rule="evenodd" d="M49.7201 45.2361C52.0894 38.4626 55.9987 35.5244 58.5225 33.5679C53.2749 34.3279 48.9591 38.578 49.7201 45.2361Z" fill="white"/>
<path fill-rule="evenodd" clip-rule="evenodd" d="M61.4206 41.3994C54.8714 45.6036 52.9587 55.2204 56.2045 62.0678C56.3782 54.8783 56.9578 48.5978 61.4206 41.3994Z" fill="white"/>
<path fill-rule="evenodd" clip-rule="evenodd" d="M56.8797 18.3619C56.697 17.224 57.5677 15.7008 59.0668 15.5255C60.5493 15.3523 61.4354 16.0288 62.4787 16.9998C62.9037 16.7208 63.3866 16.4296 63.9746 16.1824C59.1797 11.7547 54.8073 16.355 56.8797 18.3619Z" fill="white"/>
<path fill-rule="evenodd" clip-rule="evenodd" d="M100.623 46.4803C100.632 40.1253 96.1324 31.1666 91.4831 28.8298C94.4896 29.1955 97.7123 32.0515 99.6282 35.2325C98.2361 30.4887 94.119 25.9316 91.5645 24.2466C92.9944 24.5485 94.423 25.2519 95.5816 26.1438C93.6452 22.8169 88.1347 19.4028 84.0028 19.9316C82.7294 20.094 81.7606 21.0191 81.202 22.09C81.204 22.0919 81.2053 22.0945 81.2078 22.097L81.186 22.1181C81.1905 22.1085 81.197 22.0995 81.202 22.09C79.6831 20.4464 80.6006 17.5725 77.3857 16.9576C75.1767 16.5352 74.7202 18.2464 72.9793 18.2949C71.0301 18.349 69.0283 15.6612 67.0637 18.6434C68.0716 18.8938 68.6051 19.1556 69.1334 19.9787C68.2005 19.8061 66.9701 19.6239 66.1032 19.9519C65.4344 20.2048 65.2394 20.7917 65.065 21.4007C66.1436 21.6625 66.6783 21.4363 67.533 21.4644C68.1767 21.4861 68.8302 21.5714 69.4104 21.8664C70.7576 22.5519 70.8897 24.3899 70.6146 25.7067C70.4755 26.3719 70.1029 26.9376 69.9836 27.6174C70.7397 27.8232 71.3591 27.6588 72.1266 27.6244C72.9114 27.5887 73.7059 27.5843 74.4874 27.6734C74.7933 27.7079 76.6598 27.9398 76.7182 28.2997C76.8913 29.3649 76.1391 29.5375 75.3672 30.0084C74.247 30.692 72.5536 31.8222 73.4757 33.3779C73.9117 34.1138 74.7677 34.4489 75.5384 34.7216C76.186 34.9502 77.7313 35.4427 78.6309 34.3845C78.2333 33.7277 77.2876 32.8237 76.1174 32.4835C77.0574 31.9872 78.7097 32.6084 79.4311 33.2423C80.114 31.9808 78.4334 30.9303 77.5934 30.8767C78.1807 30.4754 79.5722 30.5263 80.2294 31.1233C85.4789 30.0256 89.9205 33.9252 92.4211 40.161C89.3004 36.1671 85.427 33.141 81.6958 33.5703C86.9004 35.9779 89.3004 40.2585 89.6646 43.3618C88.6868 41.9538 85.9719 37.3999 81.8831 36.7838C88.4822 44.792 91.2811 57.8529 90.5975 67.2162C90.5661 67.6482 90.4315 68.0973 90.2263 68.5402C93.3585 65.6082 93.2573 53.3997 91.1528 46.5351C95.3457 52.2319 94.3954 62.3171 94.271 63.1631C94.2486 63.3103 94.2037 63.4568 94.16 63.6026C96.3427 60.6848 97.2615 53.8374 94.3152 43.0056C98.4772 49.3727 98.2361 55.8053 97.3988 58.857C98.4035 57.2541 98.7407 55.7213 99.0453 54.1706C99.7417 46.1413 96.8801 40.5248 93.0591 34.5757C96.7197 37.4629 99.643 41.9678 100.623 46.4803ZM88.5534 23.1437C87.2434 22.7258 84.7447 23.0049 83.6624 23.6146C83.1577 23.8994 82.646 24.2466 82.4524 24.8301C85.291 24.467 88.4348 25.9482 89.6768 27.7046C85.0397 26.0648 82.2908 26.7057 81.5002 26.8605C81.172 26.6681 81.6926 25.9075 81.6874 24.9212C81.6791 23.419 81.2726 22.5755 81.2726 22.5755C83.4738 21.2803 86.9498 21.6625 88.5534 23.1437ZM80.0871 23.6146C79.1471 23.6885 78.9951 24.8671 77.049 24.3861C76.8592 24.6887 76.8759 25.6131 76.3617 25.6131C75.9353 25.615 75.8263 25.2812 75.8013 24.9614C75.7814 22.7864 76.4752 22.1537 77.0785 21.9091C78.2827 21.4912 79.1207 21.7396 80.1191 22.1467C80.8885 22.4608 81.1316 23.5324 80.0871 23.6146ZM80.4724 30.4786C80.2416 30.0498 80.196 29.4911 80.2492 29.0171C80.3127 28.4565 80.5891 28.0487 81.1886 27.8397C84.8556 26.642 89.6768 30.0689 91.1528 32.7402C89.546 31.496 83.0679 28.3991 80.4724 30.4786Z" fill="white"/>
<path fill-rule="evenodd" clip-rule="evenodd" d="M78.4219 22.8287C78.116 22.8834 78.352 23.267 78.0039 23.3485C77.5807 23.3498 77.9115 22.8363 77.3197 23.0542C77.1972 23.3224 77.5506 23.6416 77.7698 23.6856C78.1045 23.753 78.6194 23.5594 78.7207 23.2593C78.7925 23.0554 78.8881 22.7535 78.4219 22.8287Z" fill="white"/>
<path fill-rule="evenodd" clip-rule="evenodd" d="M79.3273 38.3574C82.0671 42.0691 84.521 47.1384 84.2946 53.3277C82.8186 49.7632 81.3426 45.1616 77.9898 41.3192C78.9336 44.1244 81.0014 50.0155 80.5443 55.9322C79.4645 52.2956 77.5652 47.938 76.1091 45.7126C75.9071 52.179 76.2835 62.6897 77.3543 70.819C77.6935 73.3947 77.6986 77.2255 77.6255 77.316C80.7334 75.0786 81.2502 66.3122 81.2502 58.5219C82.5891 60.997 83.6746 70.2424 81.719 75.2219C81.7087 75.2543 81.6612 75.3289 81.5971 75.4168C84.9224 72.6838 84.9666 58.3365 84.9968 56.4036C87.0851 63.6511 86.4157 69.2613 85.8925 72.4009C85.8765 72.457 85.8438 72.5314 85.8015 72.6143C89.9026 66.1052 92.0492 47.9577 79.3273 38.3574Z" fill="white"/>
<path fill-rule="evenodd" clip-rule="evenodd" d="M55.52 19.4888C52.9136 22.773 44.4593 37.0061 49.3132 52.5371C54.1677 68.068 66.0768 74.9103 76.1436 78.385C51.2933 73.4642 34.8325 43.1598 55.52 19.4888Z" fill="white"/>
</g>
<path fill-rule="evenodd" clip-rule="evenodd" d="M102.402 49.2755V49.0446C104.617 48.1783 105.258 47.2542 105.258 42.2864V16.4095C105.258 11.4417 104.617 10.5176 102.402 9.65126V9.42041H120.99V17.5644H120.756L118.717 13.9836C117.377 11.5571 116.211 10.98 114.347 10.98H110.56V28.0196H114.58C116.678 28.0196 117.377 27.1532 119.184 24.3227H119.416V33.2183H119.184C117.552 30.3878 116.678 29.5791 114.58 29.5791H110.56V47.7159H114.755C117.202 47.7159 118.134 47.312 119.65 44.77L122.388 40.2074H122.737L121.98 49.2755H102.402Z" fill="white"/>
<path fill-rule="evenodd" clip-rule="evenodd" d="M126.369 39.5029H126.77C128.373 45.8803 130.721 48.4199 133.871 48.4199C136.676 48.4199 138.796 46.3321 138.796 42.2116C138.796 32.2783 126.369 32.1656 126.369 20.1438C126.369 13.2583 130.435 9.42041 135.531 9.42041C137.765 9.42041 139.597 10.1541 141.086 10.8872V18.5636H140.686C139.311 14.3303 137.593 11.2826 134.271 11.2826C131.523 11.2826 129.862 13.371 129.862 16.4752C129.862 25.9003 142.346 25.6183 142.346 38.7128C142.346 45.7675 138.738 50.0001 133.298 50.0001C131.237 50.0001 127.8 49.3798 126.369 48.5333V39.5029Z" fill="white"/>
<path fill-rule="evenodd" clip-rule="evenodd" d="M153.6 29.81C158.619 29.81 160.155 26.1708 160.155 19.9903C160.155 14.0991 158.797 10.98 154.013 10.98H152.066V29.81H153.6ZM143.799 49.2755V49.0446C146.042 48.1783 146.692 47.2542 146.692 42.2864V16.4095C146.692 11.4417 146.042 10.5176 143.799 9.65126V9.42041H154.605C162.339 9.42041 165.587 12.0194 165.587 19.7595C165.587 28.9436 160.864 31.3118 154.191 31.3118H152.066V42.2864C152.066 47.2542 152.833 48.1783 155.549 49.0446V49.2755H143.799Z" fill="white"/>
<path fill-rule="evenodd" clip-rule="evenodd" d="M174.455 14.8091L170.531 32.9737H178.149L174.455 14.8091ZM178.149 49.2755V49.0428C181.151 48.1696 180.689 45.1421 178.554 34.779H170.126C167.876 45.2002 167.414 47.8781 170.762 49.0428V49.2755H162.682V49.0428C164.529 47.8206 165.337 45.9571 168.164 33.6142L173.879 8.6958H178.092L183.517 33.5561C185.999 45.1421 186.807 47.7624 188.827 49.0428V49.2755H178.149Z" fill="white"/>
<path fill-rule="evenodd" clip-rule="evenodd" d="M208.476 0.114843C208.134 1.37945 206.991 5.1726 203.85 5.1726C201.451 5.1726 199.623 2.98858 197.852 2.98858C196.652 2.98858 195.51 4.08026 195.053 5.23002L194.596 5.11518C194.939 3.85057 196.081 0.0574214 199.223 0.0574214C201.508 0.0574214 203.392 2.06917 205.278 2.06917C206.478 2.06917 207.563 1.14976 208.019 0L208.476 0.114843ZM208.591 50L194.082 18.0457V39.598C194.082 47.414 195.111 48.3334 197.281 49.1954V49.4251H188.941V49.1954C191.112 48.3334 192.025 47.414 192.025 39.598V16.7243C192.025 11.7814 190.998 10.862 188.827 10V9.77031H196.138L209.162 38.9657V19.5981C209.162 11.7814 208.134 10.862 205.963 10V9.77031H214.246V10C212.074 10.862 211.218 11.7814 211.218 19.5981V50H208.591Z" fill="white"/>
<path fill-rule="evenodd" clip-rule="evenodd" d="M232.346 29.626C232.346 15.2332 230.88 10.6617 226.649 10.6617C222.306 10.6617 220.783 15.5722 220.783 29.9644C220.783 44.1309 222.249 48.7589 226.536 48.7589C230.936 48.7589 232.346 43.7919 232.346 29.626ZM214.972 30.3591C214.972 14.9513 219.993 9.42041 226.987 9.42041C233.079 9.42041 238.212 13.371 238.212 29.0614C238.212 44.0175 233.644 50.0001 226.311 50.0001C219.654 50.0001 214.972 45.2594 214.972 30.3591Z" fill="white"/>
<path fill-rule="evenodd" clip-rule="evenodd" d="M241.117 49.2755V49.0446C243.272 48.1783 243.895 47.2542 243.895 42.2864V16.4095C243.895 11.4417 243.272 10.5176 241.117 9.65126V9.42041H251.834V9.65126C249.68 10.5176 249.056 11.4417 249.056 16.4095V47.7159H252.232C254.613 47.7159 255.52 47.312 256.994 44.77L259.659 40.2074H260L259.263 49.2755H241.117Z" fill="white"/>
<path d="M50.7666 86.544C50.5746 86.544 50.1906 86.384 49.6146 86.064C49.06 85.744 48.5266 85.232 48.0146 84.528C47.9293 84.4213 47.6626 84.1013 47.2146 83.568C46.788 83.0347 46.2333 82.3733 45.5506 81.584C44.8893 80.7733 44.164 79.8987 43.3746 78.96C42.5853 78.0213 41.796 77.0827 41.0066 76.144C40.2173 75.2053 39.4813 74.3413 38.7986 73.552C38.116 72.7413 37.54 72.0693 37.0706 71.536C36.6226 70.9813 36.3453 70.64 36.2386 70.512C36.0893 70.32 35.9613 70.192 35.8546 70.128C35.748 70.0427 35.652 70 35.5666 70C35.46 70 35.3853 70.0853 35.3426 70.256C35.3 70.4053 35.2786 70.544 35.2786 70.672C35.2573 71.7173 35.236 72.9227 35.2146 74.288C35.1933 75.6533 35.172 77.0613 35.1506 78.512C35.1293 79.9627 35.1186 81.3493 35.1186 82.672C35.1186 83.248 35.2573 83.7813 35.5346 84.272C35.8333 84.7627 36.3773 85.0827 37.1666 85.232C37.5293 85.296 37.796 85.3707 37.9666 85.456C38.1373 85.5413 38.2226 85.6587 38.2226 85.808C38.2226 85.936 38.1373 86.0213 37.9666 86.064C37.796 86.128 37.572 86.16 37.2946 86.16C36.7186 86.16 36.2813 86.1387 35.9826 86.096C35.7053 86.0747 35.4493 86.0533 35.2146 86.032C35.0013 86.0107 34.692 86 34.2866 86C33.9026 86 33.604 86.0107 33.3906 86.032C33.1773 86.0533 32.932 86.0747 32.6546 86.096C32.3773 86.1387 31.9506 86.16 31.3746 86.16C31.0973 86.16 30.8733 86.128 30.7026 86.064C30.532 86.0213 30.4466 85.936 30.4466 85.808C30.4466 85.6587 30.532 85.5413 30.7026 85.456C30.8733 85.3707 31.14 85.2853 31.5026 85.2C32.1213 85.0293 32.5693 84.72 32.8466 84.272C33.124 83.8027 33.2946 83.2373 33.3586 82.576C33.444 81.7653 33.5293 80.6987 33.6146 79.376C33.7 78.032 33.7746 76.5387 33.8386 74.896C33.9026 73.232 33.9346 71.5253 33.9346 69.776C33.9346 68.6453 33.636 67.8347 33.0386 67.344C32.4626 66.8533 31.7053 66.4587 30.7666 66.16C30.6813 66.1173 30.4893 66.032 30.1906 65.904C29.9133 65.7547 29.7746 65.584 29.7746 65.392C29.7746 65.2 29.8706 65.0827 30.0626 65.04C30.2546 64.976 30.404 64.944 30.5106 64.944C31.1293 64.9653 31.6306 64.9867 32.0146 65.008C32.3986 65.008 32.74 65.0187 33.0386 65.04C33.3373 65.0613 33.668 65.0827 34.0306 65.104C34.3933 65.104 34.8626 65.104 35.4386 65.104C35.6306 65.104 35.78 65.1573 35.8866 65.264C35.9933 65.3707 36.1 65.4987 36.2066 65.648C36.292 65.776 36.5693 66.1387 37.0386 66.736C37.5293 67.312 38.1266 68.048 38.8306 68.944C39.556 69.8187 40.3453 70.7787 41.1986 71.824C42.052 72.848 42.9053 73.8827 43.7586 74.928C44.612 75.952 45.4013 76.912 46.1266 77.808C46.852 78.6827 47.4493 79.408 47.9186 79.984C48.4093 80.56 48.6973 80.9013 48.7826 81.008C48.868 81.0933 48.9853 81.2213 49.1346 81.392C49.3053 81.5627 49.4546 81.648 49.5826 81.648C49.7746 81.648 49.8813 81.424 49.9026 80.976C49.9026 80.6773 49.9026 80.112 49.9026 79.28C49.924 78.4267 49.9346 77.4027 49.9346 76.208C49.956 74.992 49.9666 73.68 49.9666 72.272C49.9666 70.864 49.9666 69.424 49.9666 67.952C49.9453 67.5253 49.7213 67.1413 49.2946 66.8C48.868 66.4587 48.4733 66.256 48.1106 66.192C47.748 66.128 47.4173 66.0427 47.1186 65.936C46.82 65.8293 46.6706 65.7013 46.6706 65.552C46.6706 65.424 46.82 65.3387 47.1186 65.296C47.4173 65.232 47.7053 65.2 47.9826 65.2C48.196 65.2 48.3986 65.2 48.5906 65.2C48.804 65.2 49.0066 65.2 49.1986 65.2C49.412 65.2 49.6146 65.2 49.8066 65.2C50.3186 65.2 50.724 65.2 51.0226 65.2C51.3213 65.1787 51.6413 65.1573 51.9826 65.136C52.3453 65.1147 52.8466 65.104 53.4866 65.104C53.764 65.104 53.988 65.136 54.1586 65.2C54.3293 65.2427 54.4146 65.328 54.4146 65.456C54.4146 65.7547 54.0626 65.968 53.3586 66.096C52.5693 66.2453 52.0466 66.4373 51.7906 66.672C51.5346 66.9067 51.3853 67.2907 51.3426 67.824C51.3426 67.9307 51.332 68.3467 51.3106 69.072C51.3106 69.7973 51.3106 70.7147 51.3106 71.824C51.3106 72.9333 51.3 74.128 51.2786 75.408C51.2786 76.688 51.2786 77.968 51.2786 79.248C51.2786 80.5067 51.2786 81.6373 51.2786 82.64C51.2786 83.152 51.2893 83.6213 51.3106 84.048C51.3533 84.4533 51.3853 84.8053 51.4066 85.104C51.428 85.3813 51.4386 85.5947 51.4386 85.744C51.4386 86.0853 51.364 86.2987 51.2146 86.384C51.0866 86.4907 50.9373 86.544 50.7666 86.544ZM55.5984 86.16C55.321 86.16 55.097 86.1173 54.9264 86.032C54.7557 85.968 54.6704 85.872 54.6704 85.744C54.6704 85.5947 54.7557 85.4667 54.9264 85.36C55.1184 85.232 55.385 85.1147 55.7264 85.008C56.281 84.8373 56.793 84.5813 57.2624 84.24C57.7317 83.8987 58.137 83.3333 58.4784 82.544C59.0757 81.1787 59.6197 79.8987 60.1104 78.704C60.6224 77.5093 61.1024 76.336 61.5504 75.184C61.9984 74.032 62.457 72.8373 62.9264 71.6C63.417 70.3413 63.929 68.976 64.4624 67.504C64.569 67.2053 64.665 66.9067 64.7504 66.608C64.8357 66.3093 64.889 65.9893 64.9104 65.648C65.1024 65.584 65.2944 65.52 65.4864 65.456C65.6784 65.392 65.8704 65.296 66.0624 65.168C66.2544 65.04 66.3824 64.848 66.4464 64.592C66.5317 64.336 66.6064 64.1653 66.6704 64.08C66.6917 64.0587 66.713 64.048 66.7344 64.048C66.777 64.048 66.809 64.0693 66.8304 64.112C66.873 64.1973 66.905 64.304 66.9264 64.432C66.969 64.56 67.0117 64.688 67.0544 64.816C67.5664 66.4373 68.0997 68.0907 68.6544 69.776C69.209 71.4613 69.7424 73.0933 70.2544 74.672C70.7877 76.2293 71.2677 77.6373 71.6944 78.896C72.1424 80.1333 72.4944 81.136 72.7504 81.904C73.049 82.7573 73.369 83.3973 73.7104 83.824C74.0517 84.2507 74.4037 84.5493 74.7664 84.72C75.1504 84.8907 75.5557 85.0187 75.9824 85.104C76.345 85.168 76.6117 85.2747 76.7824 85.424C76.953 85.552 77.0384 85.6907 77.0384 85.84C77.0384 85.968 76.953 86.0533 76.7824 86.096C76.6117 86.1387 76.3877 86.16 76.1104 86.16C75.8117 86.16 75.4064 86.1387 74.8944 86.096C74.3824 86.0747 73.8384 86.0427 73.2624 86C72.6864 85.9787 72.153 85.968 71.6624 85.968C71.257 85.968 70.841 85.968 70.4144 85.968C69.9877 85.968 69.593 85.9787 69.2304 86C68.8677 86 68.5584 86 68.3024 86C68.025 86 67.801 85.968 67.6304 85.904C67.4597 85.84 67.3744 85.744 67.3744 85.616C67.3744 85.4667 67.481 85.3387 67.6944 85.232C67.9077 85.1253 68.153 85.0507 68.4304 85.008C69.1344 84.9013 69.6357 84.72 69.9344 84.464C70.233 84.208 70.3824 83.9093 70.3824 83.568C70.3824 83.248 70.3077 82.7893 70.1584 82.192C70.0304 81.5733 69.8704 80.9227 69.6784 80.24C69.4864 79.536 69.305 78.9173 69.1344 78.384C69.0917 78.2133 69.0064 78.1173 68.8784 78.096C68.7717 78.0533 68.569 78.032 68.2704 78.032H62.2224C62.137 78.032 62.041 78.0747 61.9344 78.16C61.849 78.224 61.7637 78.3733 61.6784 78.608C61.6144 78.8213 61.5077 79.1627 61.3584 79.632C61.209 80.08 61.0597 80.56 60.9104 81.072C60.761 81.584 60.633 82.0427 60.5264 82.448C60.4197 82.8533 60.3664 83.1093 60.3664 83.216C60.3664 83.6853 60.5477 84.08 60.9104 84.4C61.273 84.6987 61.7104 84.912 62.2224 85.04C62.9264 85.232 63.2784 85.4453 63.2784 85.68C63.2784 85.808 63.193 85.904 63.0224 85.968C62.8517 86.0107 62.6277 86.032 62.3504 86.032C62.073 86.032 61.6677 86.0213 61.1344 86C60.601 85.9787 60.0357 85.968 59.4384 85.968C58.7344 85.968 58.0517 86 57.3904 86.064C56.729 86.128 56.1317 86.16 55.5984 86.16ZM63.0864 76.976H68.0464C68.345 76.976 68.4944 76.9227 68.4944 76.816C68.4944 76.7733 68.4837 76.7307 68.4624 76.688C68.4624 76.624 68.4517 76.56 68.4304 76.496L65.9344 68.688C65.8064 68.304 65.7104 68.112 65.6464 68.112C65.6037 68.112 65.5184 68.2933 65.3904 68.656L62.4784 76.496C62.4357 76.624 62.4144 76.7093 62.4144 76.752C62.4144 76.8587 62.4677 76.9227 62.5744 76.944C62.7024 76.9653 62.873 76.976 63.0864 76.976ZM97.2746 86.672C96.6773 86.672 96.112 86.6187 95.5786 86.512C95.0453 86.4267 94.5546 86.256 94.1066 86C93.6586 85.744 93.2426 85.392 92.8586 84.944C92.3466 84.304 91.856 83.696 91.3866 83.12C90.9173 82.5227 90.416 81.84 89.8826 81.072C89.3706 80.304 88.7413 79.3227 87.9946 78.128C87.6746 77.5947 87.216 77.1787 86.6186 76.88C86.1493 76.6453 85.68 76.4853 85.2106 76.4C84.7626 76.2933 84.3893 76.2293 84.0906 76.208C83.92 76.1867 83.792 76.24 83.7066 76.368C83.6426 76.496 83.6106 76.656 83.6106 76.848V82.48C83.6106 83.1627 83.7706 83.76 84.0906 84.272C84.4106 84.7627 84.9653 85.0827 85.7546 85.232C86.1173 85.296 86.384 85.3707 86.5546 85.456C86.7253 85.5413 86.8106 85.6587 86.8106 85.808C86.8106 85.936 86.7253 86.0213 86.5546 86.064C86.384 86.128 86.16 86.16 85.8826 86.16C85.3066 86.16 84.8586 86.1387 84.5386 86.096C84.24 86.0533 83.9626 86.0213 83.7066 86C83.472 85.9573 83.152 85.936 82.7466 85.936C82.2133 85.936 81.7333 85.9573 81.3066 86C80.9013 86.0213 80.4853 86.0533 80.0586 86.096C79.6533 86.1387 79.1626 86.16 78.5866 86.16C78.3093 86.16 78.0853 86.128 77.9146 86.064C77.744 86.0213 77.6586 85.936 77.6586 85.808C77.6586 85.552 78.0106 85.36 78.7146 85.232C79.5253 85.0827 80.112 84.8373 80.4746 84.496C80.8586 84.1547 81.0506 83.5893 81.0506 82.8V69.168C81.0506 68.3573 81.008 67.7493 80.9226 67.344C80.8586 66.9173 80.688 66.6187 80.4106 66.448C80.1546 66.2773 79.7173 66.16 79.0986 66.096C78.736 66.0533 78.4693 65.9787 78.2986 65.872C78.128 65.744 78.0426 65.6053 78.0426 65.456C78.0426 65.328 78.128 65.2427 78.2986 65.2C78.4693 65.136 78.6933 65.104 78.9706 65.104C79.5466 65.104 79.9733 65.104 80.2506 65.104C80.5493 65.104 80.8266 65.1147 81.0826 65.136C81.3386 65.136 81.68 65.136 82.1066 65.136C82.512 65.136 82.8746 65.1253 83.1946 65.104C83.5146 65.0613 83.8666 65.0293 84.2506 65.008C84.656 64.9867 85.168 64.976 85.7866 64.976C88.1333 64.976 89.9146 65.4133 91.1306 66.288C92.368 67.1627 92.9866 68.4747 92.9866 70.224C92.9866 71.184 92.7946 72.016 92.4106 72.72C92.0266 73.4027 91.5466 73.9787 90.9706 74.448C90.3946 74.9173 89.808 75.3013 89.2106 75.6C89.1253 75.6213 89.0826 75.6747 89.0826 75.76C89.104 75.824 89.1466 75.9093 89.2106 76.016C89.872 77.0187 90.5013 77.968 91.0986 78.864C91.7173 79.76 92.3893 80.6347 93.1146 81.488C93.84 82.3413 94.704 83.2267 95.7066 84.144C96.2613 84.6347 96.8266 84.9333 97.4026 85.04C97.9786 85.1467 98.64 85.2 99.3866 85.2C99.7066 85.2 99.8666 85.3173 99.8666 85.552C99.8666 85.872 99.7066 86.1067 99.3866 86.256C99.0666 86.4267 98.704 86.5333 98.2986 86.576C97.8933 86.64 97.552 86.672 97.2746 86.672ZM85.3066 75.472C86.288 75.472 87.1306 75.248 87.8346 74.8C88.56 74.352 89.1146 73.7653 89.4986 73.04C89.904 72.3147 90.1066 71.5467 90.1066 70.736C90.1066 69.8613 89.9893 69.0613 89.7546 68.336C89.5413 67.6107 89.0933 67.0347 88.4106 66.608C87.7493 66.16 86.7466 65.936 85.4026 65.936C84.72 65.936 84.272 66.16 84.0586 66.608C83.8453 67.0347 83.7173 67.8027 83.6746 68.912C83.6533 69.4453 83.632 70.1707 83.6106 71.088C83.6106 71.984 83.6106 73.072 83.6106 74.352C83.6106 74.8853 83.76 75.2053 84.0586 75.312C84.3573 75.4187 84.7733 75.472 85.3066 75.472ZM120.087 86.672C119.49 86.672 118.924 86.6187 118.391 86.512C117.858 86.4267 117.367 86.256 116.919 86C116.471 85.744 116.055 85.392 115.671 84.944C115.159 84.304 114.668 83.696 114.199 83.12C113.73 82.5227 113.228 81.84 112.695 81.072C112.183 80.304 111.554 79.3227 110.807 78.128C110.487 77.5947 110.028 77.1787 109.431 76.88C108.962 76.6453 108.492 76.4853 108.023 76.4C107.575 76.2933 107.202 76.2293 106.903 76.208C106.732 76.1867 106.604 76.24 106.519 76.368C106.455 76.496 106.423 76.656 106.423 76.848V82.48C106.423 83.1627 106.583 83.76 106.903 84.272C107.223 84.7627 107.778 85.0827 108.567 85.232C108.93 85.296 109.196 85.3707 109.367 85.456C109.538 85.5413 109.623 85.6587 109.623 85.808C109.623 85.936 109.538 86.0213 109.367 86.064C109.196 86.128 108.972 86.16 108.695 86.16C108.119 86.16 107.671 86.1387 107.351 86.096C107.052 86.0533 106.775 86.0213 106.519 86C106.284 85.9573 105.964 85.936 105.559 85.936C105.026 85.936 104.546 85.9573 104.119 86C103.714 86.0213 103.298 86.0533 102.871 86.096C102.466 86.1387 101.975 86.16 101.399 86.16C101.122 86.16 100.898 86.128 100.727 86.064C100.556 86.0213 100.471 85.936 100.471 85.808C100.471 85.552 100.823 85.36 101.527 85.232C102.338 85.0827 102.924 84.8373 103.287 84.496C103.671 84.1547 103.863 83.5893 103.863 82.8V69.168C103.863 68.3573 103.82 67.7493 103.735 67.344C103.671 66.9173 103.5 66.6187 103.223 66.448C102.967 66.2773 102.53 66.16 101.911 66.096C101.548 66.0533 101.282 65.9787 101.111 65.872C100.94 65.744 100.855 65.6053 100.855 65.456C100.855 65.328 100.94 65.2427 101.111 65.2C101.282 65.136 101.506 65.104 101.783 65.104C102.359 65.104 102.786 65.104 103.063 65.104C103.362 65.104 103.639 65.1147 103.895 65.136C104.151 65.136 104.492 65.136 104.919 65.136C105.324 65.136 105.687 65.1253 106.007 65.104C106.327 65.0613 106.679 65.0293 107.063 65.008C107.468 64.9867 107.98 64.976 108.599 64.976C110.946 64.976 112.727 65.4133 113.943 66.288C115.18 67.1627 115.799 68.4747 115.799 70.224C115.799 71.184 115.607 72.016 115.223 72.72C114.839 73.4027 114.359 73.9787 113.783 74.448C113.207 74.9173 112.62 75.3013 112.023 75.6C111.938 75.6213 111.895 75.6747 111.895 75.76C111.916 75.824 111.959 75.9093 112.023 76.016C112.684 77.0187 113.314 77.968 113.911 78.864C114.53 79.76 115.202 80.6347 115.927 81.488C116.652 82.3413 117.516 83.2267 118.519 84.144C119.074 84.6347 119.639 84.9333 120.215 85.04C120.791 85.1467 121.452 85.2 122.199 85.2C122.519 85.2 122.679 85.3173 122.679 85.552C122.679 85.872 122.519 86.1067 122.199 86.256C121.879 86.4267 121.516 86.5333 121.111 86.576C120.706 86.64 120.364 86.672 120.087 86.672ZM108.119 75.472C109.1 75.472 109.943 75.248 110.647 74.8C111.372 74.352 111.927 73.7653 112.311 73.04C112.716 72.3147 112.919 71.5467 112.919 70.736C112.919 69.8613 112.802 69.0613 112.567 68.336C112.354 67.6107 111.906 67.0347 111.223 66.608C110.562 66.16 109.559 65.936 108.215 65.936C107.532 65.936 107.084 66.16 106.871 66.608C106.658 67.0347 106.53 67.8027 106.487 68.912C106.466 69.4453 106.444 70.1707 106.423 71.088C106.423 71.984 106.423 73.072 106.423 74.352C106.423 74.8853 106.572 75.2053 106.871 75.312C107.17 75.4187 107.586 75.472 108.119 75.472ZM124.661 86.16C124.384 86.16 124.16 86.1173 123.989 86.032C123.818 85.968 123.733 85.872 123.733 85.744C123.733 85.5947 123.818 85.4667 123.989 85.36C124.181 85.232 124.448 85.1147 124.789 85.008C125.344 84.8373 125.856 84.5813 126.325 84.24C126.794 83.8987 127.2 83.3333 127.541 82.544C128.138 81.1787 128.682 79.8987 129.173 78.704C129.685 77.5093 130.165 76.336 130.613 75.184C131.061 74.032 131.52 72.8373 131.989 71.6C132.48 70.3413 132.992 68.976 133.525 67.504C133.632 67.2053 133.728 66.9067 133.813 66.608C133.898 66.3093 133.952 65.9893 133.973 65.648C134.165 65.584 134.357 65.52 134.549 65.456C134.741 65.392 134.933 65.296 135.125 65.168C135.317 65.04 135.445 64.848 135.509 64.592C135.594 64.336 135.669 64.1653 135.733 64.08C135.754 64.0587 135.776 64.048 135.797 64.048C135.84 64.048 135.872 64.0693 135.893 64.112C135.936 64.1973 135.968 64.304 135.989 64.432C136.032 64.56 136.074 64.688 136.117 64.816C136.629 66.4373 137.162 68.0907 137.717 69.776C138.272 71.4613 138.805 73.0933 139.317 74.672C139.85 76.2293 140.33 77.6373 140.757 78.896C141.205 80.1333 141.557 81.136 141.813 81.904C142.112 82.7573 142.432 83.3973 142.773 83.824C143.114 84.2507 143.466 84.5493 143.829 84.72C144.213 84.8907 144.618 85.0187 145.045 85.104C145.408 85.168 145.674 85.2747 145.845 85.424C146.016 85.552 146.101 85.6907 146.101 85.84C146.101 85.968 146.016 86.0533 145.845 86.096C145.674 86.1387 145.45 86.16 145.173 86.16C144.874 86.16 144.469 86.1387 143.957 86.096C143.445 86.0747 142.901 86.0427 142.325 86C141.749 85.9787 141.216 85.968 140.725 85.968C140.32 85.968 139.904 85.968 139.477 85.968C139.05 85.968 138.656 85.9787 138.293 86C137.93 86 137.621 86 137.365 86C137.088 86 136.864 85.968 136.693 85.904C136.522 85.84 136.437 85.744 136.437 85.616C136.437 85.4667 136.544 85.3387 136.757 85.232C136.97 85.1253 137.216 85.0507 137.493 85.008C138.197 84.9013 138.698 84.72 138.997 84.464C139.296 84.208 139.445 83.9093 139.445 83.568C139.445 83.248 139.37 82.7893 139.221 82.192C139.093 81.5733 138.933 80.9227 138.741 80.24C138.549 79.536 138.368 78.9173 138.197 78.384C138.154 78.2133 138.069 78.1173 137.941 78.096C137.834 78.0533 137.632 78.032 137.333 78.032H131.285C131.2 78.032 131.104 78.0747 130.997 78.16C130.912 78.224 130.826 78.3733 130.741 78.608C130.677 78.8213 130.57 79.1627 130.421 79.632C130.272 80.08 130.122 80.56 129.973 81.072C129.824 81.584 129.696 82.0427 129.589 82.448C129.482 82.8533 129.429 83.1093 129.429 83.216C129.429 83.6853 129.61 84.08 129.973 84.4C130.336 84.6987 130.773 84.912 131.285 85.04C131.989 85.232 132.341 85.4453 132.341 85.68C132.341 85.808 132.256 85.904 132.085 85.968C131.914 86.0107 131.69 86.032 131.413 86.032C131.136 86.032 130.73 86.0213 130.197 86C129.664 85.9787 129.098 85.968 128.501 85.968C127.797 85.968 127.114 86 126.453 86.064C125.792 86.128 125.194 86.16 124.661 86.16ZM132.149 76.976H137.109C137.408 76.976 137.557 76.9227 137.557 76.816C137.557 76.7733 137.546 76.7307 137.525 76.688C137.525 76.624 137.514 76.56 137.493 76.496L134.997 68.688C134.869 68.304 134.773 68.112 134.709 68.112C134.666 68.112 134.581 68.2933 134.453 68.656L131.541 76.496C131.498 76.624 131.477 76.7093 131.477 76.752C131.477 76.8587 131.53 76.9227 131.637 76.944C131.765 76.9653 131.936 76.976 132.149 76.976ZM149.77 86.16C149.493 86.16 149.269 86.128 149.098 86.064C148.927 86.0213 148.842 85.936 148.842 85.808C148.842 85.6587 148.927 85.5413 149.098 85.456C149.269 85.3707 149.535 85.296 149.898 85.232C150.709 85.0827 151.327 84.8267 151.754 84.464C152.181 84.08 152.394 83.504 152.394 82.736V70.32C152.394 69.3387 152.373 68.592 152.33 68.08C152.287 67.5467 152.213 67.1733 152.106 66.96C152.021 66.7467 151.893 66.6293 151.722 66.608C151.423 66.544 151.103 66.512 150.762 66.512C150.442 66.4907 150.005 66.48 149.45 66.48H147.946C147.434 66.48 146.922 66.5867 146.41 66.8C145.919 66.992 145.557 67.3013 145.322 67.728C145.258 67.8347 145.151 67.9947 145.002 68.208C144.853 68.4 144.693 68.5707 144.522 68.72C144.351 68.8693 144.181 68.944 144.01 68.944C143.925 68.944 143.861 68.9013 143.818 68.816C143.797 68.7307 143.786 68.6347 143.786 68.528C143.786 68.3147 143.839 68.1013 143.946 67.888C144.245 67.2693 144.458 66.7253 144.586 66.256C144.735 65.7653 144.853 65.1893 144.938 64.528C144.981 64.1653 145.055 63.952 145.162 63.888C145.29 63.824 145.397 63.792 145.482 63.792C145.567 63.792 145.695 63.92 145.866 64.176C146.058 64.432 146.197 64.6453 146.282 64.816C146.41 65.0293 146.698 65.1893 147.146 65.296C147.615 65.4027 148.074 65.456 148.522 65.456H159.786C160.533 65.456 161.141 65.4133 161.61 65.328C162.079 65.2427 162.485 65.1253 162.826 64.976C163.082 64.848 163.285 64.7093 163.434 64.56C163.605 64.4107 163.818 64.336 164.074 64.336C164.138 64.336 164.191 64.4213 164.234 64.592C164.277 64.7413 164.298 64.9013 164.298 65.072C164.298 65.1787 164.277 65.328 164.234 65.52C164.213 65.712 164.191 65.8613 164.17 65.968C164.106 66.352 164.042 66.6293 163.978 66.8C163.935 66.9707 163.903 67.12 163.882 67.248C163.861 67.376 163.85 67.5787 163.85 67.856V68.24C163.85 68.432 163.807 68.656 163.722 68.912C163.637 69.1467 163.509 69.264 163.338 69.264C163.189 69.264 163.071 69.1467 162.986 68.912C162.901 68.6773 162.815 68.3573 162.73 67.952C162.645 67.504 162.389 67.152 161.962 66.896C161.535 66.6187 160.81 66.48 159.786 66.48H156.554C156.085 66.48 155.733 66.544 155.498 66.672C155.263 66.8 155.114 67.12 155.05 67.632C154.986 68.144 154.954 68.9867 154.954 70.16V82.736C154.954 83.504 155.178 84.08 155.626 84.464C156.074 84.8267 156.693 85.0827 157.482 85.232C157.845 85.296 158.111 85.3707 158.282 85.456C158.453 85.5413 158.538 85.6587 158.538 85.808C158.538 85.936 158.453 86.0213 158.282 86.064C158.111 86.128 157.887 86.16 157.61 86.16C157.034 86.16 156.554 86.1387 156.17 86.096C155.807 86.0747 155.455 86.0533 155.114 86.032C154.773 86.0107 154.357 86 153.866 86C153.333 86 152.863 86.0107 152.458 86.032C152.074 86.0533 151.669 86.0747 151.242 86.096C150.837 86.1387 150.346 86.16 149.77 86.16ZM165.895 86.16C165.618 86.16 165.394 86.128 165.223 86.064C165.053 86.0213 164.967 85.936 164.967 85.808C164.967 85.552 165.319 85.36 166.023 85.232C166.834 85.0827 167.453 84.8373 167.879 84.496C168.306 84.1547 168.519 83.6107 168.519 82.864V68.4C168.519 67.6533 168.359 67.12 168.039 66.8C167.741 66.48 167.186 66.2453 166.375 66.096C165.671 65.968 165.319 65.7547 165.319 65.456C165.319 65.328 165.405 65.2427 165.575 65.2C165.746 65.136 165.97 65.104 166.247 65.104C166.823 65.104 167.293 65.1147 167.655 65.136C168.039 65.1573 168.402 65.1787 168.743 65.2C169.085 65.2 169.501 65.2 169.991 65.2C170.461 65.2 170.845 65.2 171.143 65.2C171.442 65.1787 171.762 65.1573 172.103 65.136C172.445 65.1147 172.903 65.104 173.479 65.104C173.757 65.104 173.981 65.136 174.151 65.2C174.322 65.2427 174.407 65.328 174.407 65.456C174.407 65.6053 174.322 65.7333 174.151 65.84C173.981 65.9467 173.714 66.032 173.351 66.096C172.562 66.2453 171.986 66.48 171.623 66.8C171.261 67.12 171.079 67.6533 171.079 68.4V82.864C171.079 83.6107 171.303 84.1547 171.751 84.496C172.199 84.8373 172.818 85.0827 173.607 85.232C173.97 85.296 174.237 85.3707 174.407 85.456C174.578 85.5413 174.663 85.6587 174.663 85.808C174.663 85.936 174.578 86.0213 174.407 86.064C174.237 86.128 174.013 86.16 173.735 86.16C173.159 86.16 172.679 86.1387 172.295 86.096C171.933 86.0747 171.581 86.0533 171.239 86.032C170.898 86.0107 170.482 86 169.991 86C169.458 86 168.989 86.0107 168.583 86.032C168.199 86.0533 167.794 86.0747 167.367 86.096C166.962 86.1387 166.471 86.16 165.895 86.16ZM185.41 86.384C185.24 86.384 185.122 86.3093 185.058 86.16C184.973 85.9253 184.866 85.616 184.738 85.232C184.61 84.8267 184.493 84.4853 184.386 84.208L178.53 68.496C178.317 67.8987 178.029 67.3973 177.666 66.992C177.304 66.5867 176.845 66.3093 176.29 66.16C175.949 66.0533 175.682 65.9467 175.49 65.84C175.32 65.7333 175.234 65.6053 175.234 65.456C175.234 65.328 175.32 65.2427 175.49 65.2C175.661 65.136 175.885 65.104 176.162 65.104C176.504 65.104 176.877 65.1147 177.282 65.136C177.709 65.1573 178.157 65.1787 178.626 65.2C179.096 65.2 179.576 65.2 180.066 65.2C180.493 65.2 180.909 65.2 181.314 65.2C181.741 65.1787 182.125 65.168 182.466 65.168C182.829 65.1467 183.117 65.136 183.33 65.136C183.608 65.136 183.832 65.168 184.002 65.232C184.173 65.2747 184.258 65.36 184.258 65.488C184.258 65.6373 184.173 65.776 184.002 65.904C183.832 66.0107 183.565 66.0853 183.202 66.128C182.605 66.192 182.104 66.3307 181.698 66.544C181.314 66.736 181.122 67.0133 181.122 67.376C181.122 67.7387 181.165 68.0587 181.25 68.336C181.357 68.592 181.432 68.7947 181.474 68.944L186.082 81.104C186.125 81.1893 186.178 81.2427 186.242 81.264C186.306 81.2853 186.37 81.2213 186.434 81.072L190.818 69.552C191.245 68.4213 191.266 67.6 190.882 67.088C190.52 66.5547 189.997 66.2453 189.314 66.16C188.994 66.1173 188.738 66.0427 188.546 65.936C188.354 65.808 188.258 65.6693 188.258 65.52C188.258 65.392 188.344 65.3067 188.514 65.264C188.685 65.2 188.909 65.168 189.186 65.168C189.464 65.168 189.773 65.168 190.114 65.168C190.456 65.168 190.808 65.1787 191.17 65.2C191.554 65.2 191.949 65.2 192.354 65.2C192.973 65.2 193.634 65.1893 194.338 65.168C195.042 65.1253 195.597 65.104 196.002 65.104C196.28 65.104 196.504 65.136 196.674 65.2C196.845 65.2427 196.93 65.328 196.93 65.456C196.93 65.6053 196.845 65.7333 196.674 65.84C196.504 65.9253 196.237 66.0107 195.874 66.096C195.085 66.2667 194.424 66.6293 193.89 67.184C193.357 67.7387 192.973 68.304 192.738 68.88L186.722 83.472C186.68 83.5787 186.594 83.8027 186.466 84.144C186.36 84.464 186.242 84.816 186.114 85.2C185.986 85.584 185.858 85.904 185.73 86.16C185.709 86.224 185.666 86.2773 185.602 86.32C185.538 86.3627 185.474 86.384 185.41 86.384ZM193.442 86.16C193.165 86.16 192.941 86.1173 192.77 86.032C192.599 85.968 192.514 85.872 192.514 85.744C192.514 85.5947 192.599 85.4667 192.77 85.36C192.962 85.232 193.229 85.1147 193.57 85.008C194.125 84.8373 194.637 84.5813 195.106 84.24C195.575 83.8987 195.981 83.3333 196.322 82.544C196.919 81.1787 197.463 79.8987 197.954 78.704C198.466 77.5093 198.946 76.336 199.394 75.184C199.842 74.032 200.301 72.8373 200.77 71.6C201.261 70.3413 201.773 68.976 202.306 67.504C202.413 67.2053 202.509 66.9067 202.594 66.608C202.679 66.3093 202.733 65.9893 202.754 65.648C202.946 65.584 203.138 65.52 203.33 65.456C203.522 65.392 203.714 65.296 203.906 65.168C204.098 65.04 204.226 64.848 204.29 64.592C204.375 64.336 204.45 64.1653 204.514 64.08C204.535 64.0587 204.557 64.048 204.578 64.048C204.621 64.048 204.653 64.0693 204.674 64.112C204.717 64.1973 204.749 64.304 204.77 64.432C204.813 64.56 204.855 64.688 204.898 64.816C205.41 66.4373 205.943 68.0907 206.498 69.776C207.053 71.4613 207.586 73.0933 208.098 74.672C208.631 76.2293 209.111 77.6373 209.538 78.896C209.986 80.1333 210.338 81.136 210.594 81.904C210.893 82.7573 211.213 83.3973 211.554 83.824C211.895 84.2507 212.247 84.5493 212.61 84.72C212.994 84.8907 213.399 85.0187 213.826 85.104C214.189 85.168 214.455 85.2747 214.626 85.424C214.797 85.552 214.882 85.6907 214.882 85.84C214.882 85.968 214.797 86.0533 214.626 86.096C214.455 86.1387 214.231 86.16 213.954 86.16C213.655 86.16 213.25 86.1387 212.738 86.096C212.226 86.0747 211.682 86.0427 211.106 86C210.53 85.9787 209.997 85.968 209.506 85.968C209.101 85.968 208.685 85.968 208.258 85.968C207.831 85.968 207.437 85.9787 207.074 86C206.711 86 206.402 86 206.146 86C205.869 86 205.645 85.968 205.474 85.904C205.303 85.84 205.218 85.744 205.218 85.616C205.218 85.4667 205.325 85.3387 205.538 85.232C205.751 85.1253 205.997 85.0507 206.274 85.008C206.978 84.9013 207.479 84.72 207.778 84.464C208.077 84.208 208.226 83.9093 208.226 83.568C208.226 83.248 208.151 82.7893 208.002 82.192C207.874 81.5733 207.714 80.9227 207.522 80.24C207.33 79.536 207.149 78.9173 206.978 78.384C206.935 78.2133 206.85 78.1173 206.722 78.096C206.615 78.0533 206.413 78.032 206.114 78.032H200.066C199.981 78.032 199.885 78.0747 199.778 78.16C199.693 78.224 199.607 78.3733 199.522 78.608C199.458 78.8213 199.351 79.1627 199.202 79.632C199.053 80.08 198.903 80.56 198.754 81.072C198.605 81.584 198.477 82.0427 198.37 82.448C198.263 82.8533 198.21 83.1093 198.21 83.216C198.21 83.6853 198.391 84.08 198.754 84.4C199.117 84.6987 199.554 84.912 200.066 85.04C200.77 85.232 201.122 85.4453 201.122 85.68C201.122 85.808 201.037 85.904 200.866 85.968C200.695 86.0107 200.471 86.032 200.194 86.032C199.917 86.032 199.511 86.0213 198.978 86C198.445 85.9787 197.879 85.968 197.282 85.968C196.578 85.968 195.895 86 195.234 86.064C194.573 86.128 193.975 86.16 193.442 86.16ZM200.93 76.976H205.89C206.189 76.976 206.338 76.9227 206.338 76.816C206.338 76.7733 206.327 76.7307 206.306 76.688C206.306 76.624 206.295 76.56 206.274 76.496L203.778 68.688C203.65 68.304 203.554 68.112 203.49 68.112C203.447 68.112 203.362 68.2933 203.234 68.656L200.322 76.496C200.279 76.624 200.258 76.7093 200.258 76.752C200.258 76.8587 200.311 76.9227 200.418 76.944C200.546 76.9653 200.717 76.976 200.93 76.976ZM221.262 86.512C220.366 86.512 219.534 86.3733 218.766 86.096C218.02 85.84 217.348 85.4667 216.75 84.976C216.665 84.8907 216.58 84.7947 216.494 84.688C216.43 84.5813 216.377 84.464 216.334 84.336C216.228 83.9093 216.153 83.3547 216.11 82.672C216.089 81.9893 216.057 81.424 216.014 80.976C216.014 80.8267 216.078 80.72 216.206 80.656C216.334 80.5707 216.484 80.528 216.654 80.528C216.761 80.528 216.868 80.56 216.974 80.624C217.081 80.6667 217.145 80.752 217.166 80.88C217.593 82.5227 218.222 83.696 219.054 84.4C219.908 85.104 220.793 85.456 221.71 85.456C222.457 85.456 223.118 85.296 223.694 84.976C224.27 84.656 224.718 84.208 225.038 83.632C225.38 83.0347 225.55 82.3413 225.55 81.552C225.55 80.6773 225.401 79.9733 225.102 79.44C224.825 78.8853 224.42 78.4053 223.886 78C223.353 77.5947 222.702 77.1573 221.934 76.688C221.102 76.1547 220.281 75.6213 219.47 75.088C218.66 74.5333 217.988 73.904 217.454 73.2C216.921 72.4747 216.654 71.6 216.654 70.576C216.654 69.488 216.9 68.5067 217.39 67.632C217.881 66.7573 218.617 66.064 219.598 65.552C220.601 65.0187 221.849 64.752 223.342 64.752C224.11 64.752 224.772 64.8373 225.326 65.008C225.902 65.1573 226.361 65.3067 226.702 65.456C226.873 65.52 227.012 65.6267 227.118 65.776C227.246 65.9253 227.332 66.0853 227.374 66.256C227.502 66.704 227.641 67.216 227.79 67.792C227.94 68.368 228.014 68.912 228.014 69.424C228.014 69.6587 227.854 69.776 227.534 69.776C227.342 69.776 227.15 69.7333 226.958 69.648C226.788 69.5627 226.681 69.456 226.638 69.328C226.19 68.1973 225.668 67.3333 225.07 66.736C224.473 66.1387 223.716 65.84 222.798 65.84C222.158 65.84 221.561 65.9573 221.006 66.192C220.452 66.4267 219.993 66.8107 219.63 67.344C219.289 67.8773 219.118 68.592 219.118 69.488C219.118 70.128 219.321 70.7147 219.726 71.248C220.153 71.76 220.708 72.2507 221.39 72.72C222.073 73.1893 222.809 73.6693 223.598 74.16C224.345 74.608 225.07 75.0987 225.774 75.632C226.5 76.1653 227.086 76.8053 227.534 77.552C228.004 78.2773 228.238 79.1733 228.238 80.24C228.238 81.4987 227.95 82.608 227.374 83.568C226.798 84.5067 225.988 85.232 224.942 85.744C223.897 86.256 222.67 86.512 221.262 86.512Z" fill="#FFE34F"/>
</svg>
